<?xml version="1.0" encoding="utf-8"?>
<!-- Generator: Adobe Illustrator 19.0.0, SVG Export Plug-In . SVG Version: 6.00 Build 0)  -->
<svg version="1.1" id="Layer_1" xmlns="http://www.w3.org/2000/svg" xmlns:xlink="http://www.w3.org/1999/xlink" x="0px" y="0px"
	 viewBox="857 -261.6 2326.1 1315.6" style="enable-background:new 857 -261.6 2326.1 1315.6;" xml:space="preserve">
<style type="text/css">
	.st0{fill:#FFFFFF;}
</style>
<path id="XMLID_836_" class="st0" d="M1930.2-23.7c1.7-8.7,3.7-17.4,5.1-26.2c2.2-14.3,5.1-28.4,10.9-41.8c0.3-0.8,0.6-1.9,0.4-2.7
	c-2.3-7.3,0.4-14.2,1.4-21.3c0.5-3.5-0.7-7.3,2-10.4c0.4-0.5,0.8-1.1,2.1-1.3c-0.9,6.6-1.8,13.3-2.7,19.9c-0.8,6.3-1.2,12.7-2.4,19
	c-1.1,5.9-3.3,11.5-4.6,17.3c-3,12.8-5.9,25.7-8.7,38.6c-2.7,12.5-5.2,25.1-8.3,37.5c1.2-7.5,2.3-14.9,3.5-22.4
	c-0.4-0.1-0.8-0.2-1.3-0.3c-0.7,0.9-1.4,1.8-2.1,2.6c-0.5-0.1-1-0.1-1.4-0.2c1.1-10.7,2.2-21.3,3.3-32c0.2,0,0.3,0,0.5,0
	c0.4,7.9,0.8,15.7,1.2,23.6C1929.2-23.7,1929.7-23.7,1930.2-23.7z"/>
<path id="XMLID_834_" class="st0" d="M1917.5-29c0.2-1.6,0.4-3.3,0.5-4.9c0.2-4.7,0.4-9.5,0.7-14.2c0.1-1.5,0.5-3,0.9-4.5
	c4.9-17.4,9.9-34.9,14.8-52.3c0.3-1.2,0.7-2.4,2.2-3.4c-0.2,3.1-0.2,6.4-0.7,9.4c-0.9,4.7-2.5,9.3-3.3,14.1
	c-1.3,7.3-1.8,14.8-3.4,22.1c-1.8,7.9-4.5,15.6-6.7,23.5c-1,3.6-2,7.2-3,10.8C1918.7-28.7,1918.1-28.8,1917.5-29z"/>
<path id="XMLID_823_" class="st0" d="M1812,983.7c-1.3,0-3.3,0-5.8,0c-1-12.2,0.7-24.1,3.6-35.8c3,1,3.6,2.5,3,5.6
	c-1.2,6.5-1.8,13.2-2.1,19.9C1810.5,976.8,1811.5,980.2,1812,983.7z"/>
<path id="XMLID_805_" class="st0" d="M1823.4,952.6c-1,6.8-2.3,13.6-3.1,20.5c-0.3,2.4,0.5,4.9,0.7,7.3c0.1,1-0.4,2.1-0.6,3.1
	c-1-0.3-2.3-0.4-3-1.1c-0.6-0.5-0.9-1.7-0.9-2.6c0-9.6,2.9-18.5,5.4-27.5C1822.4,952.4,1822.9,952.5,1823.4,952.6z"/>
<path id="XMLID_768_" class="st0" d="M1916.6,12.4c1.2-5.3,2.4-10.5,3.6-15.8c0.5,0.1,1.1,0.2,1.6,0.3c-0.1,5.5-3.5,10.4-3.8,15.9
	C1917.5,12.6,1917.1,12.5,1916.6,12.4z"/>
<g id="XMLID_53_">
	<path id="XMLID_1033_" class="st0" d="M2677.5,1003.8c-217,0-434,0-651,0c0-400.6,0-801.2,0-1201.8c217,0,434,0,651,0
		C2677.5,202.6,2677.5,603.2,2677.5,1003.8z M2599.4,175.9c-0.6-0.1-1.2-0.2-1.9-0.3c0.6-3.1,1.2-6.1,1.9-9.2
		c4-17.6,8.9-35.2,11.7-52.9c2.5-15.6,6.6-31,8.1-46.7c0.9-9.9,5.8-19.5,8.7-29.3c7.7-25.4,16.8-50.7,22.4-76.4
		c4.9-22.1,16.3-43.3,17.3-65.9c0.3-7.6,2.5-15.1,3.2-22.7c0.2-1.9-1.1-4.4-2.9-5.7c-7.8-5.9-15.7-12-27.8-13.2
		c-5.2-0.5-11-3.6-15-2.5c-6.6,1.8-11-0.3-16.3-1.7c-1.1-0.3-2.9-0.3-3.9,0.2c-5.8,3-8.3,7-9.6,12.4c-5.1,20.3-11,40.5-17.3,60.6
		c-3.7,11.9-7.8,23.9-13.5,35.3c-5.3,10.6-2.3,8.6-16.9,6.8c-1.9-0.2-3.7-0.4-5.6-0.6c-22-1.8-44.1-3.8-66.1-5.4
		c-12.7-0.9-24.3-5.9-37.6-4.7c-3.8,0.3-7.9-0.6-11.8-1.2c-6-0.9-9.1-5.6-6.7-9.8c1-1.7,1.9-3.5,2.3-5.3c3.2-12.5,5.8-25.1,9.5-37.5
		c4.2-13.9,9.3-27.7,14.2-41.5c2-5.6,4.2-11.1,6.1-16.1c-20.7-7.3-39.7-15.1-63.1-13.6c-1,1.5-3,3.4-3.8,5.5
		c-3.2,8.5-6.2,17.1-8.9,25.6c-4,12.9-7.6,25.8-11.6,38.6c-4,12.9-8.6,25.7-12.5,38.6c-1.4,4.4-4.1,6.2-10.2,5
		c-1.3-0.3-3.5-0.6-4.1-0.1c-4,3.2-8,6.5-11.2,10.1c-1.6,1.8-1.8,4.4-2.3,6.7c-2,8.4-4.2,16.8-5.5,25.2c-0.3,2.3,1.5,5.6,3.9,7.1
		c3.3,2.1,5,4.1,4.1,7.2c-1.6,5.3-3.1,10.6-5,15.8c-5.6,15.9-11.2,31.8-17.1,47.7c-2.7,7.4-6.1,14.6-9.3,22.3
		c-3.2-1.8-5.4-2.9-8.3-4.5c-0.5,2-0.8,3.5-1.2,4.9c-0.4,1.2-0.6,3.1-1.5,3.3c-5.3,1.4-4.6,4.8-5.1,7.7c-0.6,3.7-0.8,7.5-1.8,11.1
		c-2.7,9.4-6,18.7-8.6,28.2c-0.4,1.4,0.8,3.5,2.2,4.7c2,1.7,4.7,3.1,7.4,4.2c4.5,1.8,5.6,4.2,4.4,7.7c-4.9,15.1-9.4,30.3-14.4,45.3
		c-3.3,10.1-7.3,20-11,30.3c-3.1-1.4-4.9-2.2-7.4-3.3c-3.5,5.5-7.7,10.3-9.7,15.5c-3.9,10.1-6.4,20.5-10.1,30.7
		c-2,5.5-1,9.6,5.9,12.5c0.9,0.4,2,0.6,4.3,1.3c-3.6,1-4.9,1.4-6.2,1.8c-0.1,0.4-0.2,0.7-0.3,1.1c3.3,0.9,6.5,1.8,10,2.7
		c-4.9,14.9-9.4,29.9-14.8,44.7c-4.6,12.6-8.5,25.3-15.1,37.7c-6.3,11.7-8.4,24.6-12.3,37.1c-2.3,7.4-2.2,7.4-11.7,4.9
		c-0.7-0.2-1.6,0-3.1,0c-5.1,16.3-14.5,31.8-16.6,48.9c10-0.2,11.9,1.6,9.8,8.4c-0.3,1.1-0.6,2.1-0.9,3.2
		c-1.9,6.5-3.5,13.1-5.9,19.5c-1.7,4.7-4.8,9.2-6.7,13.9c-1.4,3.4-1.6,7.1-2.9,10.5c-4.5,12.3-9.4,24.5-13.8,36.8
		c-3.2,8.8-5.8,17.7-8.5,26.2c-3.4,1.3-8.2-7.2-9.1,1.6c-6.8-2.2-8.7,0.7-10,4.7c-2.4,7.7-5.8,15.3-7.7,23c-1.7,6.8-8.8,13.3-3,20.8
		c3.1,4,5.3,8.4,7.6,12.7c1.1,2,2.4,4.4,1.9,6.3c-5.9,20.5-12,41-18.5,61.4c-3.9,12.4-8.4,24.7-13,36.9c-0.6,1.5-3.5,3.8-4.9,3.6
		c-6.8-0.9-7.3,2.1-7.6,5.7c-0.2,2.2,0.2,5.3-1.5,6.3c-4.3,2.4-3.8,5.5-4.6,8.6c-0.8,3.2-1.3,6.4-2.2,9.6c-2.9,10-6,20-8.8,30
		c-1.3,4.6,1.6,8,6.8,9c-0.3,2.5-0.6,4.9-0.9,7.4c-2.5,16.4-5.1,32.7-7.7,49.1c-0.1,0.9-0.8,1.8-1.3,2.6c-1.7,2.9-4,5.7-5,8.8
		c-1.5,4.5-2,9.2-3.2,13.8c-5.2,18.7-10.5,37.4-15.6,56.2c-2.2,8.1,0.7,9.7,12,9.4c13.3-0.4,26.6-2.3,40,0.4
		c13.1,2.6,26.1,1,38.6-2.5c2.1-0.6,4.3-2.7,4.6-4.4c1.6-8.3,2.4-16.7,3.9-25.1c2.5-13.9,4.7-27.8,8.3-41.5
		c5.1-19.5,11.3-38.8,17.1-58.5c1.6,0.1,3.7,0.2,5.7,0.3c14.4,1.1,28.9,2.1,43.3,3.2c22.5,1.6,45,3,67.5,4.9c26.7,2.2,53.3,5,80,7
		c17.8,1.3,35.7,1.7,55.2,2.5c-1.6,22.7-1.9,45.2-5,67.5c-3,21.8-6.1,43.7-14,64.4c6.7,0,12.6-0.2,18.4,0c12,0.5,24,0.7,35.9,1.8
		c9.3,0.8,18.3,3,27.6,4.1c7.3,0.9,14.8,1,22.3,1.5c0.1-0.5,0.1-0.9,0.2-1.4c-1.4-0.9-2.7-1.7-3.4-2.2c1.6-3.5,3.5-6.5,4.2-9.6
		c1.3-6.1,2.1-12.4,2.8-18.6c2.6-22.3,5-44.7,7.7-67.1c3.3-27.5,6.8-54.9,10.2-82.4c0.4-3.1,2.4-6.7,0.9-9.2
		c-3.6-6.1-0.7-12-0.3-17.9c0.9-12.6,3-25.1,4.5-37.7c1.3-10.4,2.5-20.8,3.7-31.2c0.4-3.9,3.2-9.1,0.8-11.3c-5.4-4.9-1.3-9-0.7-13.4
		c0.3-2.6,2.2-5.1,2.7-7.6c3.4-17.4,6.8-34.7,9.9-52.1c2.5-14.2,4.7-28.4,6.8-42.7c1.4-9.1,3.1-18.2,3.4-27.4
		c0.2-6.9,7.7-14.1-0.9-20.8c-0.1-0.1,0-0.3,0-0.5c0.5-6.3,0.8-12.6,1.6-18.9c1.4-11.4,2.9-22.7,4.5-34.1
		c3.2-21.8,6.6-43.6,9.8-65.4c0.5-3.4,2.7-7.4,1-9.9c-2.3-3.4-2-6.5-1.2-9.6c4.1-16.2,8.7-32.3,12.6-48.5
		c3.5-14.4,6.8-28.8,9.4-43.3c2.8-15.6,4.6-31.3,7-46.9c2.1-13.6,4.6-27.2,6.3-40.8c0.7-6.1-0.9-12.3-0.3-18.3
		c1.1-10.7,3-21.3,4.9-31.9c1-5.9,2.6-11.7,3.9-17.6c-0.5-0.1-0.9-0.1-1.4-0.2C2603.2,162.9,2601.3,169.4,2599.4,175.9z"/>
	<path id="XMLID_930_" d="M2599.4,175.9c1.9-6.5,3.8-13,5.7-19.5c0.5,0.1,0.9,0.1,1.4,0.2c-1.3,5.9-2.9,11.7-3.9,17.6
		c-1.9,10.6-3.8,21.2-4.9,31.9c-0.6,6.1,1,12.3,0.3,18.3c-1.6,13.6-4.2,27.2-6.3,40.8c-2.4,15.6-4.2,31.3-7,46.9
		c-2.6,14.5-5.9,28.9-9.4,43.3c-3.9,16.2-8.5,32.3-12.6,48.5c-0.8,3.1-1.1,6.1,1.2,9.6c1.7,2.6-0.5,6.6-1,9.9
		c-3.3,21.8-6.6,43.6-9.8,65.4c-1.7,11.3-3.2,22.7-4.5,34.1c-0.8,6.3-1.1,12.6-1.6,18.9c0,0.2-0.1,0.4,0,0.5
		c8.6,6.7,1.1,13.9,0.9,20.8c-0.3,9.1-2,18.3-3.4,27.4c-2.2,14.2-4.3,28.5-6.8,42.7c-3.1,17.4-6.5,34.7-9.9,52.1
		c-0.5,2.6-2.3,5.1-2.7,7.6c-0.6,4.4-4.7,8.5,0.7,13.4c2.4,2.2-0.3,7.5-0.8,11.3c-1.2,10.4-2.4,20.8-3.7,31.2
		c-1.5,12.6-3.6,25.1-4.5,37.7c-0.4,5.9-3.3,11.7,0.3,17.9c1.5,2.5-0.6,6.1-0.9,9.2c-3.4,27.5-6.9,54.9-10.2,82.4
		c-2.7,22.3-5.1,44.7-7.7,67.1c-0.7,6.2-1.5,12.4-2.8,18.6c-0.7,3.1-2.6,6-4.2,9.6c0.7,0.4,2,1.3,3.4,2.2c-0.1,0.5-0.1,0.9-0.2,1.4
		c-7.4-0.5-14.9-0.6-22.3-1.5c-9.3-1.1-18.3-3.3-27.6-4.1c-11.9-1.1-23.9-1.4-35.9-1.8c-5.9-0.2-11.7,0-18.4,0
		c7.9-20.7,11-42.6,14-64.4c3.1-22.3,3.4-44.8,5-67.5c-19.5-0.8-37.4-1.2-55.2-2.5c-26.7-2-53.3-4.8-80-7c-22.5-1.8-45-3.3-67.5-4.9
		c-14.4-1-28.9-2.1-43.3-3.2c-2.1-0.2-4.1-0.2-5.7-0.3c-5.8,19.7-12.1,39-17.1,58.5c-3.6,13.7-5.8,27.6-8.3,41.5
		c-1.5,8.3-2.3,16.7-3.9,25.1c-0.3,1.6-2.6,3.8-4.6,4.4c-12.5,3.5-25.5,5.1-38.6,2.5c-13.4-2.7-26.7-0.8-40-0.4
		c-11.3,0.3-14.2-1.3-12-9.4c5.1-18.7,10.5-37.4,15.6-56.2c1.3-4.6,1.7-9.3,3.2-13.8c1-3,3.3-5.8,5-8.8c0.5-0.9,1.1-1.7,1.3-2.6
		c2.6-16.4,5.1-32.7,7.7-49.1c0.4-2.5,0.6-4.9,0.9-7.4c-5.2-1-8.1-4.4-6.8-9c2.8-10,6-20,8.8-30c0.9-3.2,1.4-6.4,2.2-9.6
		c0.8-3,0.2-6.2,4.6-8.6c1.7-0.9,1.3-4.1,1.5-6.3c0.3-3.6,0.8-6.6,7.6-5.7c1.4,0.2,4.4-2.1,4.9-3.6c4.6-12.3,9.1-24.5,13-36.9
		c6.5-20.4,12.6-40.9,18.5-61.4c0.6-1.9-0.8-4.3-1.9-6.3c-2.3-4.3-4.5-8.7-7.6-12.7c-5.8-7.6,1.3-14,3-20.8c1.9-7.8,5.3-15.3,7.7-23
		c1.3-4.1,3.2-6.9,10-4.7c0.8-8.8,5.7-0.3,9.1-1.6c2.7-8.5,5.3-17.4,8.5-26.2c4.4-12.3,9.3-24.5,13.8-36.8c1.3-3.4,1.5-7.1,2.9-10.5
		c1.9-4.7,4.9-9.2,6.7-13.9c2.4-6.4,4-13,5.9-19.5c0.3-1.1,0.6-2.1,0.9-3.2c2.1-6.8,0.2-8.6-9.8-8.4c2.1-17,11.5-32.6,16.6-48.9
		c1.5,0,2.4-0.2,3.1,0c9.5,2.5,9.4,2.5,11.7-4.9c3.9-12.4,6-25.3,12.3-37.1c6.6-12.3,10.5-25,15.1-37.7c5.4-14.8,9.9-29.8,14.8-44.7
		c-3.5-0.9-6.7-1.8-10-2.7c0.1-0.4,0.2-0.7,0.3-1.1c1.3-0.4,2.5-0.7,6.2-1.8c-2.3-0.7-3.3-0.9-4.3-1.3c-6.9-2.9-7.9-7-5.9-12.5
		c3.7-10.2,6.1-20.6,10.1-30.7c2-5.2,6.2-10,9.7-15.5c2.4,1.1,4.3,1.9,7.4,3.3c3.8-10.3,7.7-20.2,11-30.3c5-15.1,9.5-30.2,14.4-45.3
		c1.2-3.6,0-6-4.4-7.7c-2.7-1.1-5.4-2.5-7.4-4.2c-1.4-1.2-2.6-3.3-2.2-4.7c2.6-9.4,5.9-18.7,8.6-28.2c1-3.6,1.2-7.4,1.8-11.1
		c0.5-3-0.2-6.3,5.1-7.7c0.9-0.3,1.2-2.2,1.5-3.3c0.5-1.4,0.7-2.9,1.2-4.9c2.9,1.6,5.1,2.8,8.3,4.5c3.2-7.7,6.6-15,9.3-22.3
		c5.9-15.9,11.5-31.8,17.1-47.7c1.8-5.2,3.4-10.5,5-15.8c0.9-3-0.8-5.1-4.1-7.2c-2.4-1.5-4.3-4.8-3.9-7.1c1.3-8.5,3.5-16.8,5.5-25.2
		c0.5-2.3,0.7-4.9,2.3-6.7c3.2-3.6,7.3-6.9,11.2-10.1c0.6-0.5,2.8-0.2,4.1,0.1c6.1,1.2,8.8-0.6,10.2-5c4-12.9,8.5-25.7,12.5-38.6
		s7.6-25.8,11.6-38.6c2.7-8.6,5.7-17.1,8.9-25.6c0.8-2.2,2.7-4.1,3.8-5.5c23.3-1.5,42.4,6.3,63.1,13.6c-1.9,4.9-4.1,10.5-6.1,16.1
		c-4.8,13.8-10,27.6-14.2,41.5c-3.7,12.4-6.3,25-9.5,37.5c-0.5,1.8-1.3,3.6-2.3,5.3c-2.4,4.2,0.7,8.9,6.7,9.8
		c3.9,0.6,8,1.5,11.8,1.2c13.2-1.2,24.9,3.8,37.6,4.7c22.1,1.6,44.1,3.6,66.1,5.4c1.9,0.2,3.8,0.3,5.6,0.6
		c14.6,1.8,11.6,3.8,16.9-6.8c5.7-11.4,9.8-23.4,13.5-35.3c6.3-20.1,12.3-40.3,17.3-60.6c1.3-5.4,3.8-9.4,9.6-12.4
		c0.9-0.5,2.8-0.5,3.9-0.2c5.2,1.5,9.6,3.5,16.3,1.7c4-1.1,9.9,2,15,2.5c12.2,1.2,20,7.2,27.8,13.2c1.8,1.4,3,3.8,2.9,5.7
		c-0.8,7.6-2.9,15.1-3.2,22.7c-0.9,22.7-12.4,43.8-17.3,65.9c-5.6,25.7-14.8,51-22.4,76.4c-3,9.8-7.8,19.4-8.7,29.3
		c-1.4,15.7-5.5,31.1-8.1,46.7c-2.9,17.7-7.8,35.3-11.7,52.9c-0.7,3.1-1.3,6.1-1.9,9.2C2598.2,175.7,2598.8,175.8,2599.4,175.9z
		 M2396.3,846.4c9.5,1.5,19,3,28.5,4.6c0.2-0.6,0.3-1.3,0.5-1.9C2415.6,848.2,2405.9,847.4,2396.3,846.4c-5.7-1.5-11.6-3-17.2-4.8
		c-1.8-0.6-3-2-4.5-3.1c0.6-0.6,1.2-1.3,1.9-1.9c4.3,1.5,8.6,3.1,13,4.4c7.9,2.3,15.9,2.7,24.5,2.7c8,0,16,2.5,24.1,3.7
		c6.4,0.9,12.9,1,19.1-1.8c-10.6-2.3-21.3-3.4-32-4.7c-10.9-1.4-21.7-3.1-32.7-4.3c-10.9-1.2-21.8-2.2-32.7-2.9
		c-11.1-0.7-22.3-1.3-33.5-1.5c-11-0.1-22,0.1-33,0.6c-10.8,0.5-21.6,1.4-32.3,2.2c0.1,0.6,0.1,1.1,0.2,1.7
		c7.1,0.6,14.2,1.2,21.3,1.6c3.1,0.2,6.3,0.1,9.3-0.4c22.6-3.7,44.8-4.5,64.6,3.4c3.3-0.8,6.2-2.3,8.3-1.9
		C2375.3,841.4,2385.8,844,2396.3,846.4z M2500.1,850.5c-1.6-1.7-3.1-3.5-4.2-4.7c-0.3,1.3-1,3.7-1.3,6.1
		c-1.5,14.3-5.9,27.9-14.9,40.7c-3.4,4.8-7.3,9.7-8.9,14.9c-5.3,17.4-9.7,35-14.5,52.5c-1.1,4-2.5,7.9-3.8,11.8
		c-0.5-0.1-0.9-0.2-1.4-0.2c5.1-20.9,10.1-41.8,15.2-62.7c-0.6-0.1-1.3-0.2-1.9-0.2c-1.4,5.6-2.8,11.1-4.2,16.7
		c-0.7-0.1-1.4-0.2-2-0.3c1-4.2,2.1-8.4,3.1-12.5c4-16,7.6-32.1,12.1-48.1c2.3-8.2-4.3-13.9-15.9-12.4c2.4,0.9,4.7,1.8,7,2.7
		c-0.2,0.6-0.4,1.1-0.5,1.7c-15.9-1.3-31.8-2.6-47.8-3.9c0.3,3.7,0.9,6.3,0.7,8.9c-0.7,17.5-1.2,35-2.6,52.4c-0.8,9.4,3,18.9-1,28.2
		c-1.1,2.6-1,5.5-1.8,8.2c-1.2,4.2-1.2,9.1-4.2,12.5c-5.2,5.9-1.5,11.3-0.6,16.9c0.1,0.6,1.6,1.5,2.6,1.6
		c10.9,0.7,21.8,1.8,32.7,1.8c12.6,0,12.6-0.5,14.1-9.5c3.5-19.9,9.6-39.4,17.7-58.6c0.7-1.7,2-3.2,3.5-5.7c0.4,1.5,0.7,2,0.6,2.4
		c-2.8,10.2-11.2,19.7-7.9,30.8c0.1,0.3-0.8,0.7-1.1,1.1c-4,5.2-8.1,22.4-6.7,28.8c0.6-1.4,1.1-2.6,1.5-3.7
		c4.8-14.9,5.2-30.8,17.8-44c1.5-1.6,1.7-3.8,2.9-5.6c2.6-3.7,5.4-7.3,8.1-11c-0.1,3.4-1.7,6.1-2.4,8.9c-0.8,2.9-0.2,6.1-1.1,9
		c-2.9,8.9-6.6,17.7-9.3,26.6c-1.9,6.6-2.6,13.4-3.8,20.1c14.4-26.4,18.5-54.2,24.9-81.7c-7.4,5.2-8.9,13.3-18.2,17.1
		c3.2-5.3,6.6-10.6,11-15.3c5.3-5.7,6.8-11.9,7.2-18.5c0.8-11.8,2.7-23.6,3.1-35.4c0.4-12.1,6.6-23.6,3.6-36.3
		c-3.1-12.9-2.7-26.4-2.7-39.7c0.1-16.1,1.4-32.1,2.1-48.2c0-0.4-0.4-0.7-0.6-1.2c-1.3,1.1-2.3,2.1-3.9,3.5
		c-1.1-1.7-1.9-2.8-2.6-3.9c-0.4,0-0.8,0.1-1.2,0.1c-1.4,12.1-2.8,24.2-4.2,36.3c0.4,0,0.7,0.1,1.1,0.1c1.5-7.7,3-15.5,4.5-23.2
		c0.8,0.1,1.7,0.1,2.5,0.2c-3.8,27.6-2.8,55.1,3.6,82.4c-0.6,0.1-1.2,0.2-1.9,0.3c-0.8-1.9-1.7-3.7-2.5-5.6
		c-0.6,0.1-1.1,0.1-1.7,0.2C2500,819.4,2500,835,2500.1,850.5C2500,850.6,2500.1,850.5,2500.1,850.5z M2607.4,8.3
		c1.1,1.5,2.3,2.9,3.4,4.4c-2.6,0.3-4.8,0.5-7.8,0.8c2.5,3.9,5.8,7.3,3.1,11.4c-12.7-6.2-26.7-4.7-40.2-6.3
		c-1.4,3.6-3.2,6.9-3.8,10.2c-3.5,17.2-10.5,34-11.9,51.5c-0.5,5.7-2.1,11.3-3.9,16.9c-1.3,4-3.8,7.9-5.3,11.9
		c-0.4,1.1,0.6,3.2,1.7,3.6c4.3,1.5,9,2.6,13.6,3.7c2.4,0.5,5.8,1.6,7.2,0.9c6.6-3.5,7.1,1.1,9.2,3.4c1.3,1.5,2.1,3.3,3.1,5
		c0.5-2.1-0.4-4,0-5.8c0.4-1.9,2.5-3.5,3.1-5.3c2.1-7.5,4.2-15.1,5.6-22.7c2.7-14.5,4.6-29,7.5-43.5c1.1-5.6,3.8-11,5.7-16.5
		c0.5,0.1,1.1,0.2,1.6,0.3c0.6,1.2,1.3,2.4,2.5,4.5c1.1-2.7,1.8-4.5,2.5-6.2c0.2,0,0.4,0.1,0.7,0.1c0,4.4,0,8.9,0,13.5
		c1.1-0.7,2.1-1.3,4.2-2.6c-0.6,3.4-1,5.8-1.4,8.2c0.3,0,0.5,0.1,0.8,0.1c1.8-5,3.7-10,5.5-15.1c-0.6-0.1-1.1-0.3-1.7-0.4
		c-0.8,1.8-1.6,3.6-2.4,5.4c-0.3-0.1-0.7-0.1-1-0.2c2.5-15.1,5-30.3,7.5-45.4c-0.6-0.1-1.1-0.1-1.7-0.2c-0.3,0.7-0.5,1.4-0.9,2.1
		c-2.2,4.1-4.4,8.1-6.6,12.1c1.8-9.9,3.7-19.8,5.5-29.7c-13.4-1.4-25-2.6-36.5-3.8c0-0.4,0.1-0.9,0.1-1.3c3.8,0.2,7.7,0.5,11.5,0.7
		c-1.7-0.9-3.5-1.4-5.4-1.5c-24.7-2.1-49.3-4.4-74-6.2c-14.5-1.1-29.1-1.4-43.6-2.5c-8.7-0.7-17.3-2.4-25.9-3.6
		c-5.3-0.8-10.7-1.5-16-2.2c-1.5-0.2-3.1-0.5-4.5-0.8c-3.1-0.8-6-2.1-9.1-2.4c-4.7-0.4-9.6,0-14.3-0.3c-9-0.6-18-1.5-27.1-2.3
		c0.1-0.6,0.1-1.1,0.2-1.7c13.9,0.9,27.8,1.7,42.1,2.6c0.8-3,2.2-5.8,1.9-8.4c-0.3-2.2-2.7-6.1-4.1-6.2c-8.2,0-5.7-4.5-5-6.8
		c2.6-9.1,5.5-18.2,9.4-27c3.9-8.7,9.2-17,13.6-25.5c0.8-1.5,1-3.4,0.7-5.1c-0.4-2.1-2.8-4.3-2.3-6.2c2.2-7.8,5.1-15.5,8-23.8
		c-1.3-0.5-3.5-1.5-6.4-2.7c-4.2,15.8-8,30.8-12.3,45.8c-5.1,17.6-10.6,35.1-16.1,52.6c-0.6,2.1-2.1,4-3.3,6
		c-0.6-0.1-1.3-0.3-1.9-0.4c0.2-1.4,0.1-2.9,0.6-4.3c1.7-5,3.8-9.8,5.3-14.8c4.3-13.9,8.6-27.8,12.6-41.8c3.7-13,7.2-26.1,10.5-39.2
		c0.2-0.9-1.7-2.7-3.2-3.2c-5.3-1.8-10.9-3.3-16.4-4.9c-4.6-1.3-11.9,0.7-13,3.8c-4.8,14.6-10.3,29.1-13.9,43.8
		c-4.7,19.5-9.7,38.8-18.8,57.5c-1.6,3.4-0.9,6.1,4.4,7.4c1.4,0.3,2.6,0.9,3.9,1.4c-7.5-0.8-15-2.7-17.4,6c-0.5-0.3-0.9-0.6-1.4-0.9
		c-0.3-2.3-0.7-4.6-1.1-7.1c-2.6,0-5,0-6.6,0c-4.3,9.5-8.3,18.7-12.5,27.8c-2,4.3-0.5,6.5,5.6,7.2c8.5,0.9,17.1,1.7,25.7,2.2
		c10.8,0.6,21.6,0.4,32.3,1.5c25,2.5,50.4,2.8,75,7.7c8.4,1.7,17.7,0.8,26.4,1.6c18.2,1.6,36.4,3.3,54.6,5.3
		c13.7,1.5,27.3,3.8,41,5.2C2593.3,8.6,2600.4,8.2,2607.4,8.3z M2508.1,482.3c-5.9-1.3-3.6-4.6-2.9-7.3c2.4-9.1,5.2-18.2,7.8-27.4
		c0.9-3.3-0.9-4.8-5.6-5.1c-14.7-0.9-29.3-1.9-43.9-3.1c-15.7-1.3-31.5-2.6-47.1-4.2c-18.3-1.9-36.4-4.5-54.7-6.1
		c-16.6-1.5-33.4-3.4-49.9-2.6c-24.6,1.2-49,4.5-73.4,7c-7.7,0.8-15.2,2.1-22.9,3.1c-0.2-0.7-0.4-1.4-0.5-2.1
		c22.8-4.7,46.6-5.8,71-9.1c-16.4-1.3-31.6-2.5-46.7-3.7c0.1-0.8,0.2-1.6,0.3-2.5c11.9,0.6,23.8,1.3,35.4,1.9
		c0.6-5.4,0.4-10,1.9-14.4c4.6-14.3,10.1-28.5,14.7-42.9c1.9-5.9,2.7-12,4.1-18.1c-0.6-0.1-1.2-0.2-1.8-0.3
		c-1.1,3.2-2.1,6.4-3.2,9.6c-0.7-0.1-1.4-0.3-2.2-0.4c-0.5-20.2,13.9-38.2,17.4-57.8c-7.2-1.5-8.4-1.1-10.2,3.9
		c-1.5,4.2-3.2,8.4-4.4,12.6c-8.1,29.4-16,58.7-24.1,88.1c-1.3,4.9-2.9,9.7-4.7,15.5c-1.5-1.5-2.4-2-2.3-2.4
		c10.6-39.5,21.3-78.9,32-118.5c-4.1-0.2-8.3,0.5-11.1-0.6c-6.9-2.9-13.9-2.9-21.4-2.4c-6.4,0.4-9.8,2.4-11,7.1
		c-4.7,19.1-9.7,38.1-14.6,57.2c-1.3,4.9-2.6,9.8-3.8,14.7c-0.7-0.1-1.4-0.1-2-0.2c1-5.7,2.1-11.5,3.1-17.2c-0.3,0-0.7-0.1-1-0.1
		c-5.7,20.9-11.3,41.7-17.1,62.7c8,0.8,15.4,1.5,22.8,2.2c-0.1,0.6-0.1,1.1-0.2,1.7c-2.8,0.1-5.6,0.1-8.4,0.3
		c-6.8,0.5-15.1-3.1-19.5,5.3c-0.9-2.8-1.4-4.3-1.8-5.7c-2-0.1-4,0.2-5.4-0.4c-5.5-2.1-8.6,1.1-9.6,3.5c-3.8,9.5-6.5,19.1-9.9,29.3
		c4.5,0.4,8.2,0.7,11.9,1.1c31.4,4,63,6.8,94.9,7.7c17.1,0.5,34.2,1.7,51.2,3.2c15.3,1.4,30.3,3.9,45.6,5.5
		c17.4,1.7,34.9,2.7,52.2,4.4c22.1,2.2,44.1,4.8,66.2,7.2c1.5,0.2,3.2-0.4,4.8-0.6c4.2,1.7,8.3,3.5,12.5,5.2c-0.4,0.7-0.8,1.3-1.2,2
		c-7.6-1.5-15.2-3-22.9-4.5c-0.1,0.3-0.2,0.6-0.4,0.8c0.7,0.4,1.3,0.8,2,1.2c-2.6,0.4-6.2,0.3-6.8-0.7c-2.3-3.7-8.4-3.1-9.7-2.3
		c-5,2.9-9.8,1-14.5,0.7c-7.6-0.5-15.2-1.4-22.8-2.1c-0.2,0.5-0.4,0.9-0.5,1.4c3.2,0.9,6.3,2,9.5,2.6c6.8,1.1,13.6,1.9,20.5,2.7
		c5.8,0.6,11.6,1.2,17.5,1.5c5.2,0.2,10.5-0.1,15.7,0c5.4,0.1,10.8,0.6,15.3,0.8c2.9-12.1,5.7-23.4,8.3-34.7c1.1-4.9-4-10-11.1-11.2
		c-1.3,4.1-2.7,8.1-3.8,12.2c-2,7.6-3.9,15.1-5.9,22.7C2509.5,481.1,2508.7,481.7,2508.1,482.3z M2211,655.5
		c-3.5,8.4-7.4,16.3-10.1,24.4c-4.6,13.8-8.5,27.8-12.8,41.7c-3.7,11.8-7.3,23.6-11.6,35.3c-1.6,4.3-0.2,5.5,5.4,5.8
		c15.6,1,31.2,1.9,46.7,3.5c14.2,1.4,28.3,3.8,42.5,5.3c16.3,1.7,32.8,2.7,49.1,4.4c10.1,1.1,20,3.4,30.1,4.5
		c15.9,1.6,31.9,2.4,47.8,4.1c5.5,0.6,7.6-1,8.3-4.3c1.5-7.5,3.7-15.1,3.7-22.7c0-21,6.5-41.3,11.4-61.9c1.7-7.3,2.5-14.6,3.7-21.9
		c-12.5-1.2-23.6-2.4-34.7-3.2c-15-1.1-29.7-5.5-45.1-2.9c-0.8,0.1-1.7-0.2-2.5-0.3c-22.1-3-44.2-6-66.3-9
		c-4.8-0.6-9.7-0.7-14.5-1.3C2245,655.2,2228,652.9,2211,655.5z M2481.4,799.6c1.5-10.4,2.9-20.1,4.3-29.9c-0.3,0-0.6,0-0.9-0.1
		c-1.1,5.5-2.2,11.1-3.4,16.6c-1-1.2-1.1-2.2-1-3.3c1.5-14.4,1.5-28.8,6-43c3.2-10.1,3.3-20.7,5.5-31c1-4.6,4.6-8.9,5.5-13.5
		c3.1-14.9,2.1-30.1,8.8-44.9c3.4-7.4,0.6-16.3,0.6-24.8c-2.9,12.2-5.8,24.1-8.6,36.1c-0.5-0.1-1-0.1-1.6-0.2
		c2.1-22.7,11.7-44.8,10.1-67.8c-2.3,8.7-3.6,17.5-5.5,26.2c-1.4,6.5-2.7,7-12.6,4.3c-1.1,10.7-2.1,21-3.4,31.3
		c-0.6,4.7,1.4,8.4,5.7,11.9c2.7,2.1,4.5,4.8,7.8,8.4c-4.6,0-6.9,0.2-9.1,0c-15.1-1.3-30.2-2.6-45.3-4.1c-5.2-0.5-8,0.6-9.1,4.4
		c-1.7,5.9-3.6,11.8-5.2,17.8c-0.3,1,1,2.2,2.3,4.6c-1.6,6.4-4.9,14.3-5.2,22.2c-0.5,13.7-6.7,26.7-7.3,40.3
		c-0.4,9.8-6.7,19.3-3.8,29.7c12.8,1.3,25.8,2.4,38.8,3.8c2.7,0.3,5.2,1.3,7.8,2c-0.2,0.6-0.5,1.3-0.7,1.9
		c-4.3-0.2-8.6-0.3-12.8-0.8c-15.4-1.7-30.7-3.8-46.2-5.4c-29.4-3-58.7-5.8-88.1-8.6c-17.9-1.7-36-2.9-53.8-5
		c-12.5-1.5-25.1-0.5-37.5-4.8c-8.5-3-20-2.7-29.8-1.7c-27.1,2.6-53.6,8.1-81,9.3c-5.2,0.2-10.3,0.7-15.5,1
		c-0.1-0.7-0.2-1.4-0.3-2.2c28.2-2.8,57-3.4,84.6-9.6c-9.5-1.3-19-2.1-28.6-2.4c-15.8-0.5-31.6-0.6-47.4-1.3
		c-5-0.2-9.5-0.8-12.2,2.8c-3.1-0.9-5.7-1.8-7.7-2.4c-5,13.3-9.9,26.3-14.9,39.5c1.6,0.2,2.6,0.4,3.6,0.5
		c20.9,1.2,41.9,1.8,62.6,3.7c34.5,3,68.7,7.1,103.2,10.2c14.2,1.3,28.6,1,42.9,1.6c4.8,0.2,10.5-0.4,14.3,1.2
		c8.2,3.4,17.1,3,25.7,3.9c38.1,3.7,76.3,6.9,114.5,10.5c6.7,0.6,13.3,1.8,20.4,2.8c1.2-6.4,2.2-12,3.3-18.2
		c-37.8-3.6-75-7.1-112.3-10.6c0.1-0.5,0.2-1.1,0.3-1.6c37.8,1.3,75,6.5,112.7,9.7c0.8-9,1.6-18.2,2.4-28.5
		C2470.8,794.8,2475.7,797,2481.4,799.6z M2227.3,585.6c3.8,0.5,7.3,1,10.8,1.3c22.7,1.8,45.4,3.3,68.1,5.2
		c9.2,0.8,18.1,2.9,27.3,3.7c11.9,1.2,24.3,0.7,35.9,2.8c22.4,3.9,45.3,3.4,67.8,5.5c4.5,0.4,6-1.2,6.3-4.2
		c0.7-6.2,1.7-12.4,2.5-18.6c0.3-2.5,0.9-4.9,1-7.4c0.1-3.5-0.6-7-0.1-10.5c1.1-7.1,2.7-14.2,4.1-21.2c2.8-14.5,5.4-29,8.5-43.4
		c1.3-6.2,0.6-7.4-8.1-7.7c-9.4-0.3-18.9-0.2-28.3-1c-16.9-1.4-33.8-3.4-50.7-4.9c-11.5-1-23.1-1.7-34.7-2.4
		c-22.1-1.2-44.2-2.3-66.3-3.3c-4.3-0.2-8.7,0.2-12.8,0.4C2248.2,515.3,2237.9,550,2227.3,585.6z M2476.1,431.4
		c5-34.5,8.8-67.9,18.7-100.9c-2.2,0-3.5,0-5.3,0c0-2.3-0.5-4.6,0.1-6.6c1.1-3.3-0.7-3.9-4.7-4.3c-15.7-1.3-31.4-2.7-47-4.5
		c-13.5-1.6-26.8-4.2-40.3-5.6c-25.3-2.6-50.8-4.4-76.1-6.8c-5.4-0.5-8.4,0.9-9.6,4.2c-3,8.2-6.3,16.5-7.7,24.9
		c-1,6-4.1,11.7-2.7,18.3c1.3,5.8-2.9,12.3-4.6,18.5c-3,10.8-6.1,21.5-9,32.3c-1.4,5.1-2.5,10.3-3.8,15.8c2.4,0.1,4.2,0.6,5.6,0.2
		c9.9-3,19.8-0.3,29.3,0.6c20.7,2,41,5.8,61.6,8.1c19.2,2.1,38.6,3.3,58,4.6C2450.8,430.7,2463.3,430.9,2476.1,431.4z M2292.5,282.3
		c85.5,9.6,170.7,19.2,256.5,28.8c0-3.1-0.1-5.9,0-8.6c0.2-2.4,0.7-4.8,1.1-7.2c0.9,0.1,1.9,0.1,2.8,0.2c0,5.1,0,10.1,0,15.2
		c1.9-0.8,2.6-1.6,2.9-2.6c1.5-6.6,3-13.1,4.5-19.7c0.5-2.3,1.7-4.7,1.1-6.9c-0.9-3.7-1.8-7.9-8.4-9.7c-2.8,10.6-5.5,20.9-8.3,32
		c-1.4-1.2-1.9-1.4-1.8-1.6c1.6-10.2,3.2-20.4,4.9-30.6c0.3-2.1,1.5-3.2,5.1-3c1.5,0.1,4.5-2,4.9-3.3c1.7-6.9,2.8-13.8,3.9-20.8
		c1-6.6,1.8-13.2,2.5-19.8c1.8-15.5,3.7-31,5.1-46.6c1.2-13.7,1.8-27.4,2.8-41.1c0.1-1.2,0.2-2.5,0.8-3.7c2.7-5.5-2-8.5-7.4-12.3
		c-1.4,2.7-2.9,4.8-3.5,6.9c-1.9,7.9-3.3,16-5.2,23.9c-1.6,7.1,2.4,13,6.3,19c0.6,1,0.5,2.2,0.8,3.3c-1.7,0-3.5,0.2-5.1,0
		c-9.8-1.4-19.5-2.9-29.8-4.4c-1.2,7-2.7,12.8-3.2,18.7c-1.2,15.7-11.2,30.5-7.5,46.9c1.1,5.1-2.7,10.8-4.7,16.2
		c-1.9,5-4.6,9.8-7,14.9c5.6,0.5,10,1,14.4,1.3c4.4,0.4,8.8,0.5,13.2,1c3.9,0.4,7.8,1.2,11.6,1.8c-0.2,0.7-0.3,1.4-0.5,2.1
		c-2.4,0-4.8,0.2-7.2,0c-9.4-0.8-18.9-1.6-28.3-2.5c-5.5-0.5-8.7,2.3-6.7,6.2c0.4,0.8,1.1,1.5,2.1,2.9c-2.4,0.1-4.1,0.2-5.8,0.3
		c0-3.1,0-6.2,0-10.4c-53.1-6.3-107.3-12.8-161.7-19.3c-0.5,3.8-0.7,6.2-1,8.6c-0.7,0-1.5,0-2.2,0.1c-0.8-2.7-1.6-5.4-2.4-8
		c-7.5-0.9-15.1-1.8-22.8-2.7c-18.8-2.1-37.6-4.2-56.4-6.3c-2.8-0.3-5.5-0.5-6.3,2.4c-2.2,8.7-4.6,17.3-7,26
		c-1.2,4.3,1.1,6.5,6.8,7.1c7.5,0.9,14.9,2.1,22.4,2.8c7.4,0.6,14.9,2.2,22.2-0.6c2-0.8,4.8-0.5,7.3-0.7c0.1,0.3,0.1,0.6,0.2,1
		C2296.7,280.4,2294.7,281.3,2292.5,282.3z M2376.6,149.1c0,0.5,0.1,0.9,0.1,1.4c8.9,1.3,17.7,2.4,26.7,0.2
		c22.9-5.8,46.1-4.3,69.3-1.6c3.8,0.4,7.5,1.9,11,3.3s6.5,3.5,10.1,4.6c11,3.4,22.1,7,33.5,9.5c9,2,18.7,2.5,28,3.7
		c0.4-0.6,0.7-1.1,1.1-1.7c-1.4-1.4-2.4-3.6-4.1-4c-13.5-2.8-27.1-5.3-40.7-7.9c-1.8-1.6-3.9-3.3-6.5-3.7c-12.5-2.1-25-4.2-37.7-5.7
		c-11.3-1.3-22.8-1.9-34.2-2.9c-1.4-0.1-2.7-0.8-4-1.2c0.1-0.4,0.2-0.8,0.3-1.1c4.5,0,9.1-0.5,13.4,0.1c18.9,2.4,37.7,5.1,56.5,7.7
		c15.7,2.1,31.4,4.2,47,6.4c4,0.6,5.7-0.1,6.3-3.3c2.1-11.2,4.5-22.4,6.8-33.8c-1.2-0.2-3.4-0.7-5.7-0.9
		c-13.4-1.3-26.7-2.5-40.1-3.8c-4.6-0.5-9.1-1.4-13.6-1.8c-9.8-0.9-19.7-1.4-29.6-2.4c-29.9-2.9-59.8-5.9-89.7-8.7
		c-6-0.6-7.1-2-5.9-6.6c2.5-9.6,4.5-19.2,6.7-28.8c-0.7-0.1-1.4-0.2-2.1-0.3c-2.1,9.3-4.3,18.5-6.4,27.8c-0.6,0-1.2-0.1-1.8-0.1
		c0-4.1,0-8.2,0-12.1c-1.7,3-3.7,5.8-4.9,8.8c-1,2.7-1.4,5.7,3.6,7.8c-10.7-0.6-21.4-1.2-32.1-1.8c0-0.6,0.1-1.1,0.1-1.7
		c8.1,0.5,16.2,1,24.2,1.4c2.5-16.2,4.3-32.4,7.6-48.5c2.6-12.9,6.7-25.6,10.3-38.3c0.5-1.7,2.3-3.1,3.5-4.7c0.7,0.2,1.4,0.4,2,0.6
		c-2.3,6.3-4.8,12.7-6.8,19c-1.4,4.6-5.2,9.2-1.1,13.5c-6.9,8.5-5.3,17.7-6.6,26.6c4.4-7.2,8.3-14.5,12.2-21.8
		c0.4-0.7,0.6-1.7,0.2-2.3c-5.2-7.4-0.8-14.4,1.7-21.3c1.5-4.3,4.5-8.3,6.8-12.4c0.7,0.2,1.4,0.4,2,0.6c-4.3,8.8-9.9,17.5-8.7,27.1
		c0.6,0.1,1.2,0.2,1.8,0.3c3.5-9.8,6.9-19.5,10.6-29.8c-20.2-2.3-40.2-4.6-58.3-6.7c-3,5.2-6.1,9-7.5,13.1c-3.2,9.3-5.6,18.7-8.4,28
		c-2.7,8.7-5.5,17.4-8.1,25.7c-1.3,0.8-3.5,1.4-3.8,2.4c-1.9,6-3.3,12.1-5.1,18.1c-0.7,2.5,0.5,3.4,3.7,3.7c3,0.3,6,0.8,8.9,1.2
		c-7.7,0.9-15.4,1.7-22.6,0.6c-6.1-0.9-6.9,1-7.9,4.1c-1.7,5.1-3.4,10.2-5.2,15.4c-1.9,5.5-3.8,11-5.7,16.7c4.7,1.1,8.5,2,13.5,3.1
		c-1.2-2-1.9-3.1-2.8-4.7c2.2-0.2,3.9-0.7,5.4-0.5c11,1.3,22,2.6,33,4.1c2,0.3,3.8,1.2,5.7,1.8c3.4,1.1,6.9,2.2,10.4,3.1
		c0.2,0.1,1.1-1.1,2.7-2.7c3.6,0.6,9.1,1.4,14.6,2.3c0,0.5,0.1,1,0.1,1.5c-3.4,0.3-6.7,0.7-10.1,0.9c-1.4,0.1-3-0.6-4.3-0.3
		c-19,3.8-38.2,3.5-59.1,1.7c3.9,2.6,6.7,4.7,9.8,6.4c1.1,0.6,4.6,0.2,4.7,0c0.6-3.7,4.1-2,6-1.5c8.4,1.9,16.6,1.6,25,0.1
		c6.5-1.2,13.2-1.8,19.9-2.6c7.1-0.9,14.1-1.8,21.5-2.7c0-0.2,0-1,0-0.6c8.8-0.5,17.1-1,25.9-1.5c-1.4,0.9-2.4,1.7-3.7,2.6
		c3.9,0.6,7.2,1.2,10.5,1.7c0,0.5,0,1,0.1,1.5c-23.2-4.9-42.9,5.4-64.6,6.5c7.9,1.1,15.7,2.1,23.4,2.8c1.5,0.1,3.2-0.4,4.8-0.8
		c8.4-1.9,16.7-3.9,25.2-5.6c4.9-1,10.3-0.7,14.9-2.1c6.3-1.9,13.6-1.6,17.7,1.9c-8.7,0.4-17.4,0.4-25.9,1.4
		C2393.5,145.5,2385.1,147.6,2376.6,149.1z M2129.4,588.4c0.8,2.7,1.7,4.2,1.4,5.5c-0.8,3.7-2.2,7.3-3.1,10.9
		c-1.8,7.3-3.6,14.6-4.9,22c-0.3,1.5,1.5,4.3,2.8,4.5c9.2,1.3,18.5,2.4,27.8,3c28.5,1.8,57.1,2,85.5,6.2c22.3,3.3,45.3,4,68,5.8
		c23.9,2,47.9,3.9,71.8,6c19.3,1.7,38.5,3.4,57.7,5.3c12.5,1.2,25,2.5,37.5,3.8c5.2,0.6,6.8-0.9,7.1-4.8c0.9-12.2,2.5-24.4,3.8-37.2
		c-14.4-1.3-28.3-6-42.1-3.6c-4.1-1.3-7-2.7-10.2-3.1c-6.6-0.9-13.4-1.4-20.1-2c-21.6-1.9-43.2-3.9-64.9-5.6
		c-13.2-1-26.6-1.5-39.8-2.6c-9.8-0.8-19.4-2.7-29.1-3.6c-29.4-2.5-58.8-4.8-88.2-7c-14.1-1.1-28.2-1.8-42.4-2.3
		c-4-0.2-8,1.4-11.8-1.3C2134.9,587.4,2131.3,588.4,2129.4,588.4z M2498.9,262.6c0.3-2,0.4-3.4,0.7-4.8c4-18.9,14.6-36.8,12.2-56.6
		c-0.9-7.3,2.2-14.8,3.7-22.2c1.9-9.4,0.3-10.5-12.1-11.4c-18.9-1.4-38-2.5-56.6-5.2c-26.7-3.9-53.8-3.8-80.6-6
		c-4.4-0.4-5.8,1.2-6.5,4c-0.9,4-2.2,7.9-3.4,11.8c-2.6,8.2-5.7,16.2-7.7,24.5c-1.8,7-2.4,14.2-3.4,21.3c-0.1,1-0.2,2.6,0.4,2.9
		c4.3,1.6,1.9,3.7,1,5.6c-2.5,5.5-5.1,10.9-7.6,16.1c18.3,4.3,36.4,3.4,53.9,6.9c25.5,5.1,52.1,7.2,78.3,10.4
		C2480.3,261.1,2489.5,261.7,2498.9,262.6z M2550.6,19.4c-11.2-0.9-21.7-2-32.1-2.6c-30.4-2-60.7-3.8-91.1-5.7c-4-0.3-8-0.5-12-1
		c-4.3-0.5-6.2,1.2-7.1,4c-6.3,19.8-12.6,39.5-18.8,59.3c-1.9,6.2-3.6,12.3-5.4,18.5c50,6.3,99.7,12.5,150.6,18.9c0-2.2,0-4,0-5.8
		c0-2.7-0.6-5.5,0.1-8.1c3.1-11.3,6.7-22.4,9.9-33.7c1.4-4.9,3.8-10.1,2.6-14.6c-1.1-4.2-0.6-7.8,0.1-11.7
		C2548.5,30.9,2549.5,25.1,2550.6,19.4z M2129.5,828.7c-12.5-0.7-24.5-1.5-36.4-2.1c-3.8-0.2-8.5-1.2-11,0c-2.1,1.1-1.6,4.9-2.3,7.5
		c-0.1,0.5-0.3,0.9-0.5,1.4c-2.6,6.5-5.9,13-7.8,19.7c-5.3,18.4-10.4,36.8-14.7,55.3c-4.1,17.7-7.1,35.4-10.6,53.5
		c5.8-0.2,11.2-0.3,16.7-0.6c1-0.1,2.7-0.7,2.9-1.3c1.7-4.4,3.7-8.8,4.4-13.3c0.7-4.4,0.2-8.9,0.2-13.4c1,0,1.9,0.1,2.9,0.1
		c-1,9.2-1.9,18.3-2.9,28.1c7.1-0.4,15.7-0.7,24.2-1.4c1.2-0.1,2.6-2.2,2.9-3.5c2.3-10.1,4.1-20.3,6.6-30.4
		c6.6-26.4,13.4-52.8,20.1-79.2C2125.8,842.4,2127.7,835.7,2129.5,828.7z M2150.7,585.7c1.9,0.8,2.4,1.2,3,1.3
		c14.8,0.9,29.5,1.7,44.3,2.4c1.3,0.1,3.5-1.6,3.8-2.7c2-6.2,3.7-12.4,5.1-18.7c0.6-3,2.5-4,5.9-3.8c-2.9,8.5-5.7,16.8-8.5,25.1
		c10.6,3.7,14.4,2.4,16.2-5.6c0.6-2.9,0.7-5.9,0.5-8.9c-0.9-12.4,4-24.5,3.4-37.1c-0.4-7.9,5.9-16,9.5-23.9
		c4.4-9.6,13.5-17.9,14.5-28.5c0.2-2.6,2.7-5.5-2.2-7.4c-0.1,0,1.2-3.2,2-3.3c7.2-0.6,14.5-1.2,21.7-0.9c17.7,0.6,35.3,1.7,53,2.6
		c-4.5-1.6-9.1-2.7-13.9-3.1c-10.2-0.7-20.4-0.8-30.5-1.5c-16.8-1.1-33.5-2.1-50.1,1.9c-5.1,1.2-11.6-0.4-17.3-1
		c-5.1-0.6-10.2-1.6-15.3-2.3c-1.8-0.2-3.8,0.2-6.2,0.3C2176.7,508.6,2163.6,547.3,2150.7,585.7z M2186.6,649.7
		c-15.7-0.5-29.8-1.4-43.9-1.4c-15.8,0-12.4-1-15.6,9.4c-3.1,10-5,20.1-8.1,30.1c-2.9,9.7-6.7,19.2-9.9,28.8
		c-3.4,10.2-6.7,20.4-10,30.5c-0.3,1-1.4,2.5-0.8,3.1c2.8,3,0,5.1-1.6,7.5c-0.8,1.3-1.6,3.2-0.9,4.2c0.8,1.1,3.3,1.9,5.2,2
		c13.5,1,27.1,2,40.6,2.8c3.8,0.2,7.7,0,9.6,0c6.2-19.9,12.2-39.1,18-58.3C2175.1,689.3,2180.6,670,2186.6,649.7z M2470.3,490.8
		c-0.3,4.3-0.2,8.2-0.8,12c-2.2,13.6-4.7,27.1-7.1,40.6c-1.2,6.9-2.7,13.8-3.6,20.8c-0.4,2.5,1,5.2,0.4,7.6
		c-2.3,9.3-5.2,18.6-7.7,27.8c-1.1,4-1.8,8-2.7,12.1c6.2,0.6,13.9,1.2,21.6,2.1c10,1.2,20.5,1.7,26.4,9.2c0.1,0.1,0.7,0,0.8,0
		c6-15.2,1.6-31.8,12.2-47.7c1.4,6,3,10.7,3.4,15.5c0.9,10.4,0.4,20.9,1.9,31.3c1.1,7.5,4.4,14.8,6.7,22.1c0.5,1.4,1.3,2.8,1.9,4.2
		c-0.5,0.1-0.9,0.2-1.4,0.3c-1.1-1.2-2.1-2.5-3.2-3.7c-0.3,0.1-0.6,0.2-0.9,0.3c2,5.3,3.9,10.6,5.9,15.9c0.7,0,1.3-0.1,2-0.1
		c-0.4-5.1-0.4-10.3-1.3-15.4c-1.9-11.2-4.7-22.4-6.4-33.7c-2.3-15.1-4.1-30.2-6.1-45.3c-0.4,0-0.7,0-1.1,0c-1,2.4-2,4.8-3,7.2
		c-0.8-0.1-1.6-0.2-2.4-0.3c3.8-26.4,7.6-52.7,11.5-79.6C2501.5,492.9,2485.9,491.8,2470.3,490.8z M2334.4,149.6
		c-12.1-0.9-23-1.6-33.8-2.6c-4.7-0.4-7,0.4-8.5,4.1c-6.3,16-12.6,31.9-11.1,48.9c0.4,4.5-0.9,9.2-1.4,13.7c-0.5,0-1-0.1-1.5-0.1
		c0-6.3,0-12.7,0-19c-3.5,7.5-6.3,15.1-8.4,22.7c-2,7.3-5.7,14.4-3.8,22.8c12,1.4,25.2,2.9,38.8,4.4c0.8-4.4,1.4-8.4,2.5-12.4
		c0.8-3.1,3.2-3.8,5.5-2.3c-1.2,5.4-2.3,10.2-3.4,14.8c14.3,2.7,15,2.6,17.2-6.9c1.9-8.3,2.4-16.8,4.8-25.1
		c4.4-15.5,9.9-30.8,14.7-46.2c1.5-4.9,2.6-10,3.8-14.8c-9.3-2.1-9.3-2.1-11.7,3.8c-8.4,21.5-16.7,42.9-25.1,64.4
		c-0.4,1.1-1.1,2.2-1.7,3.3c-0.5-0.1-1.1-0.3-1.6-0.4C2317.3,198.6,2329.4,175.1,2334.4,149.6z M2520.9,317.7
		c-4.6-0.4-8.8-0.7-13-1.1c-4-0.4-6,0.6-5.9,3.7c0.2,4.2,0.8,8.4,0.2,12.5c-1.2,8.8-3,17.6-4.7,26.4c-2.7,14.1-5.6,28.3-8.4,42.4
		c-1.7,8.7-2.8,17.6-5.2,26.2c-1.8,6.5-0.4,9.3,8.6,10.7c3.9,0.6,8,0.6,12,0.8c6.9,0.5,13.8,0.9,19.6,1.3c0.6-3,1.1-6.9,2-10.8
		c2.8-11.8,6-23.5,8.5-35.3c2.3-11.2,3.6-22.6,6-33.8c2.1-9.6,5.6-19.1,7.5-28.7c2.1-10.7,1.3-10.9-11.1-12.7
		c-2.9-0.4-5.9-0.3-8.8-0.8c-3.8-0.7-5.5,0.7-6.7,3c-1.4,2.8-2.9,5.5-4.3,8.3c-0.5-0.1-1-0.3-1.5-0.4
		C2517.5,325.6,2519.1,322,2520.9,317.7z M2610.9-23.6c2.3-10.2,3.3-18.9,6.3-27.2c6.7-19.3,14.7-38.4,21.5-57.7
		c3.2-9,5-18.3,7.2-27.4c0.7-3.1-0.7-4.5-5.4-3c-1.4,0.5-3.5,0.3-5.1-0.1c-7.7-1.6-15.4-3.3-23-5c-4.6-1-7.6-0.3-8.8,3.6
		c-2.7,8.9-6.1,17.7-8.7,26.7c-3.9,13.5-7.4,27.1-11,40.7c-3.2,12-6.4,24.1-9.8,36c-0.8,3,0.4,5.3,3.8,6.1
		C2588.7-28.2,2600-25.9,2610.9-23.6z M2122,869.9c-1.9,6.3-4.3,14-6.3,21.8c-1.9,7.4-2.8,14.7-2.6,22.4c0.4,14.1-3.2,28.2-5.4,42.3
		c-0.9,6,2.9,8.1,10.7,6.2c-6-20.3-2.1-40.5-0.7-60.7c0.6,0,1.2,0,1.8,0c0,16.8,0,33.5,0,50.3c0.6,0,1.1,0,1.7,0
		c1.5-10.9,2.8-21.9,4.5-32.8c1.8-11.4,3.2-22.9,6-34.2c3.8-15.2,8.5-30.3,13.2-45.4c1-3.2,2.8-6.1-2.7-8.1
		c-1.7-0.6-3.2-2.5-4.5-2.3c-1.4,0.1-3.2,1.8-3.7,3.1c-2.9,7.8-5.5,15.6-8.2,23.4c-0.4,1.1-0.9,2.1-1.1,3.2c-0.2,1,0,2.1,0,3.3
		c3.9-5.1,7.4-9.8,11-14.5c0.6,0.2,1.1,0.4,1.7,0.6c-3.7,7.1-7.5,14.1-11.2,21.2c0.9,0.3,1.7,0.6,2.6,0.8c2.7-4,5.4-8.1,8.1-12.1
		c0.2,0,0.4,0.1,0.6,0.1c-4.9,14-9.8,28.1-14.7,42c-5.1-2.7-4.9-6.8-3.1-10.6c1.8-3.9,4.8-7.5,7.1-11.3c0.4-0.7,0.4-1.8-0.1-2.5
		C2125.1,873.6,2123.3,871.5,2122,869.9z M2485.6,815.2c3.6,13.1-2.8,55.6-10.3,61.6c2.5-10.1,4.7-19,6.9-27.8
		c-0.4,0-0.8-0.1-1.2-0.1c-5.5,18.7-11,37.3-16.5,56c0.6,0.1,1.1,0.2,1.7,0.3c0.7-1.9,1.4-3.8,2.2-5.6c0.5-1.1,1.1-2.3,2.1-3.3
		c2.4-2.5,5.6-4.6,7.4-7.3c10.8-15.7,13.7-32.8,15-50.1c0.2-3.3-0.5-7.1,1.5-9.6c3.7-4.4,2.1-8.5,1.5-12.8
		c-0.8-4.9-2.7-9.8-2.9-14.7c-0.6-13.6-0.7-27.1-0.6-40.7c0.1-11,0.5-22.1,1.4-33.1c0.5-6.9,2-13.7,3.1-20.5
		c-7.5,26.4-9.6,52.9-6.2,80.1c-1.6-0.3-2.7-0.6-3.8-0.8c-4.6,10.3-2.8,20,5.3,30.2C2488.7,816,2487.4,815.7,2485.6,815.2z
		 M2544.6,483.5c-9,15.2-16.2,31-20.3,48.2c-1.3-1.4-2-2.2-2.2-2.5c-1.5,1.5-4.4,3.2-4.5,4.9c-0.3,7.9-0.1,15.9,0.5,23.8
		c0.5,6,2.3,12,2.7,18c0.4,5.5,5.9,10.6,0.7,16.8c-2.4,2.9-0.6,7.8-0.2,11.7c0.1,1.3,2.1,2.6,2.3,3.9c0.9,6.4,1.4,12.8,2.1,19.2
		c0.6,0,1.3-0.1,1.9-0.1c0.2-9.4,6.7-18.6,1.6-28.3c1.9-19.3,3.8-38.5,5.7-57.8c0.4-4.3,1.1-8.7,1.7-13c-6.6,12.8-8.9,26.1-8.9,39.6
		C2517.1,538.2,2532.9,511.2,2544.6,483.5z M2510.7,800.1c0.2-1.3,0.7-2.6,0.6-3.9c-1.3-14.7,4-29.3-0.9-44.3
		c-2.6-7.8,1.1-16.7,2-25.1c1-9.5,3.6-19,2.9-28.3c-0.7-10.8-4.3-21.4-6.6-32.1c-0.7-3.2-1.1-6.5-1.6-9.7
		c-3.9,16.6-4.1,33.2-2.9,49.8c0.6,0,1.3,0.1,1.9,0.1c0.5-0.9,1.1-1.8,2-3.3c1.2,7.9,4.1,14.7,1.2,22.3c-2.1,5.5-1,11.8-1.3,17.7
		C2506.8,762.2,2506.1,781.1,2510.7,800.1z M2469.3,798.4c-2.2,13-4.6,25.7-6.5,38.3c-0.4,2.7-0.6,6.3,1.4,8c2.2,2,7,2.5,10.8,3.2
		c0.4,0.1,2.4-2.8,2.7-4.3c1.1-6.2,2.1-12.4,2.5-18.6c0.3-4.3-1.2-8.7-0.7-13C2480.3,805.1,2478.8,802.3,2469.3,798.4z
		 M2547.9,429.1c-0.7,0-1.4,0-2.2,0c0-6.3,0-12.6,0-18.8c-0.7,0-1.3,0-2-0.1c-1.1,9.4-2.2,18.9-3.2,28.3c0.7,0.1,1.4,0.2,2.1,0.2
		c1.5-1.5,3-3,4.5-4.5c0.4,0.1,0.8,0.3,1.1,0.4c-3.9,8.4-7.9,16.7-11.8,25.1c0.4,0.1,0.8,0.3,1.2,0.4c3-3.9,6-7.9,9-11.8
		c-0.8,3.8-2.6,7.2-4.4,10.6c-1.9,3.5-4,6.9-5.8,10.3c-1.8,3.5-3.7,7-5.2,10.5c-1.5,3.4-2.5,6.8-3.8,10.2c0.5,0.1,1,0.2,1.5,0.3
		c0.7-1.2,1.5-2.5,2.1-3.7c3.2-5.9,6.4-11.8,9.5-17.7c2.5-4.9,5.8-9.7,7-14.8c3.2-13.3,5.4-26.7,7.9-40.1c2-10.9,3.7-21.8,5.5-32.7
		c-0.6-0.1-1.2-0.1-1.8-0.2c-0.9,3-1.7,5.9-2.6,8.9c-0.5,0-1,0-1.6,0c-0.5-3.9-1-7.8-1.5-11.9c0,9.1,0,18,0,26.9
		c-0.7,0.4-1.4,0.8-2,1.3c-0.8-1.4-1.5-2.8-2.3-4.1c-0.4,0.1-0.9,0.2-1.3,0.3C2547.9,411.3,2547.9,420.2,2547.9,429.1z
		 M2250.1,825.6c-2.1-0.5-2.8-0.8-3.6-0.8c-21.3-1.9-42.6-3.8-63.9-5.7c-18.1-1.6-35.9-5.6-54.6-2.4c-7.9,1.3-16.5,0.5-24.7,0.9
		c-6.1,0.3-12.2,0.8-18.3,1.5c-1.2,0.1-2.2,1.5-3.2,2.3c1.1,0.5,2.1,1.4,3.3,1.5c2.9,0.3,5.9,0.4,8.8,0.2c15-1.2,30-3.2,45-3.7
		c12.5-0.4,25.2,1,37.8,1.6c5.7,0.3,12.1-0.5,16.9,1.2c7.6,2.7,15.3,2.7,23.1,3.4c2.5,0.2,5.2,0.3,7.5,1.1
		C2232.6,829.5,2240.7,828.3,2250.1,825.6z M2634.9-22.7c-0.6,0-1.3,0-1.9,0c-0.5-7.9-1.1-15.7-1.6-23.6c-0.2,0-0.4,0-0.7,0
		c-1.5,10.7-3,21.3-4.4,32c0.7,0.1,1.3,0.1,2,0.2c1-0.9,1.9-1.8,2.9-2.6c0.6,0.1,1.1,0.2,1.7,0.3c-1.6,7.5-3.2,14.9-4.7,22.4
		c4.3-12.4,7.7-25,11.3-37.5c3.8-12.9,7.7-25.8,11.8-38.6c1.9-5.8,4.8-11.5,6.3-17.3c1.6-6.2,2.2-12.7,3.3-19
		c1.2-6.6,2.4-13.3,3.6-19.9c-1.7,0.3-2.3,0.8-2.9,1.3c-3.6,3.1-2,6.9-2.7,10.4c-1.3,7.1-5,14-1.9,21.3c0.3,0.8,0,1.9-0.5,2.7
		c-7.8,13.4-11.7,27.5-14.7,41.8C2640-40.1,2637.3-31.4,2634.9-22.7z M2163.8,766.5c0.6,0,1.2,0.1,1.9,0.1c5.7-5.7,13-54.5,10-66.8
		c-0.3,1.6-0.3,3.2-0.8,4.7c-5,15.1-10.4,30.1-15.1,45.2c-1.6,5.2-1.8,10.7-2.7,16.1c0.9,0.1,1.8,0.2,2.7,0.3
		c3-11.9,5.9-23.8,8.9-35.7c0.7,0.1,1.3,0.2,2,0.3C2168.4,742.5,2166.1,754.5,2163.8,766.5z M2617.7-28c0.8,0.1,1.7,0.3,2.5,0.4
		c1.3-3.6,2.6-7.2,4-10.8c3.1-7.8,6.7-15.5,9.1-23.5c2.2-7.3,2.8-14.8,4.6-22.1c1.1-4.7,3.3-9.3,4.5-14.1c0.8-3.1,0.7-6.3,1-9.4
		c-2,1.1-2.5,2.3-2.9,3.4c-6.7,17.4-13.4,34.9-20.1,52.3c-0.6,1.5-1.1,3-1.3,4.5c-0.4,4.7-0.6,9.5-0.9,14.2
		C2618.3-31.3,2618-29.6,2617.7-28z M2186.2,679.6c-0.1,9.4-6.9,18.3-2.1,29.1c5.1-20,9.9-38.8,14.7-57.6c-5.7-2.4-8.6-0.2-10.3,3.6
		c-1,2.2-1.7,4.5-2.3,6.8c-2.1,8.3-4,16.6-6,24.9c0.4,0.1,0.8,0.2,1.3,0.3C2183,684.4,2184.6,682,2186.2,679.6z M2591.5,165.1
		c-5,8.1-7.8,15.8-15.4,21.5c0.3-6.3,1.8-12.4,2.5-18.5c0.7-6.4,0.7-12.8,0.9-19.2c0.1-6.1,0-12.2,0-18.2c-0.6,0-1.1,0-1.7,0
		c-2.1,22.5-4.1,45-6.2,67.5c0.4,0,0.7,0.1,1.1,0.1c0.3-2.2,0.5-4.4,0.8-7c1.1,1.1,2,1.9,3.3,3.1
		C2585.9,185.8,2590.8,176.7,2591.5,165.1z M2138.8,643.3c0,0.4,0,0.9,0,1.3c10.1,0.7,20.2,1.5,30.5,0.3c11.4-1.3,23-2.2,34.5-3.2
		c1.6-0.1,3.3,0.3,5,0.4c3.8,0.1,7.6,0,11.4,0c-2.3-1-4.6-1.3-6.9-1.5c-10.4-0.8-20.9-1.9-31.3-2.2c-4.5-0.1-9,2.1-13.6,2.5
		C2158.5,642,2148.7,642.5,2138.8,643.3z M2587.1,188.7c-2.9,3.2-5.7,6-8.3,9c-1.1,1.3-2.8,2.8-2.6,4.1c1.8,10.4,4,20.8,6.1,31.2
		c0.3,0,0.7,0,1,0c1.2-9,2.4-18,3.6-27.4c-2.5,1-4,1.6-7.1,2.8C2583.7,201.5,2591.1,196.3,2587.1,188.7z M2454.7,4.4
		c-0.1,0.5-0.2,1-0.2,1.5c31.7,0,63.3,0,94.3,0C2534.6,2.7,2469.9,1.6,2454.7,4.4z M2422.4-97.5c0.5,0.1,1,0.2,1.6,0.3
		c0.5-1,1.1-1.9,1.5-3c5.1-15.3,10-30.7,15.4-46c1.3-3.7-0.3-5.4-4.9-6.8c-4.6,7.2-8.5,14.2-8.4,23c2.8-1.8,4.6-3,6.7-4.3
		C2430.3-121.8,2426.4-109.7,2422.4-97.5z M2313.3,466.2c-33.5-2.1-66.7-2.4-99.8,1.3c0,0.6,0,1.3,0.1,1.9
		C2246.7,468.3,2279.9,467.2,2313.3,466.2z M2434.8,154.9c19.7,2.5,39.4,4.9,59.1,7.4c0.1-0.7,0.3-1.3,0.4-2
		c-13.4-1.5-26.8-2.9-40.1-4.4c4.8-1.1,9.7-1.1,14.6-1.1c4.8,0.1,9.6,0.3,14.4,0.5C2471.9,150.2,2451.2,149.9,2434.8,154.9z
		 M2224.2,569c0.5,0,1,0,1.5,0.1c5.2-19.1,10.4-38.3,15.6-57.4c-0.5-0.1-1-0.2-1.6-0.4c-4,7.9-8.1,15.8-12.1,23.8
		c-0.2,0.4,0.1,0.9,0.1,1.4c0.1,2.7,0.5,5.4,0.1,8C2226.8,552.7,2225.5,560.8,2224.2,569z M2571.6,203.2c0.1-0.2-0.6,0.5-0.8,1.3
		c-2.3,8.7-2.9,17.3,0.4,26c2.6,6.8,3.6,14,5,21c1.4,6.9,2.4,13.8,3.5,20.7c1.2-1.8,1.6-3.6,1.4-5.4c-2-12.8-4.2-25.6-6.2-38.4
		C2573.6,219.9,2572.7,211.3,2571.6,203.2z M2474.6,984.7c-0.7-3.5-2-6.9-1.8-10.3c0.4-6.7,1.2-13.4,2.9-19.9c0.8-3.1,0.1-4.6-4-5.6
		c-4,11.8-6.3,23.6-4.9,35.8C2470.2,984.7,2472.9,984.7,2474.6,984.7z M2417.5,303.9c0.3,0,3.6,0.9,4,0.4c2.4-2.8,4.3-1.1,6.8-0.2
		c4.3,1.5,8.9,2.8,13.5,3.8c2.3,0.5,4.9,0.3,7.7,0.4c-1.2-1.2-2.2-2.1-3.5-3.4c10.6-1.3,19.2,7.7,29.5,1.7
		c-18.9-2.5-38-5.1-56.2-7.5C2418.6,300.5,2418.2,301.8,2417.5,303.9z M2327.1,466.4c-0.2,0.5-0.5,1-0.7,1.6
		c6.5,1.9,12.9,4.1,19.5,5.5c6.6,1.5,13.5,2.3,20.3,3.4c8.7,1.4,17.4,2.9,26.1,4.3c1.4,0.2,3.1-0.2,5.9-0.4
		C2373.6,475.8,2350.4,471.1,2327.1,466.4z M2562.1,371.9c2.4-16.4-5.5-32.1-5.4-48.3C2555.8,339.9,2554.6,356.1,2562.1,371.9z
		 M2592.2,82c0,18.6-5.1,37.5,4.3,55.8c0.5,0,1.1,0,1.6-0.1C2596.1,119.2,2594.2,100.6,2592.2,82z M2582.7,157.2
		c1,0.1,1.9,0.1,2.9,0.2c0-17.6,0-35.2,0-52.8C2580.2,122.1,2583.5,139.7,2582.7,157.2z M2371.7-2.3c0,0.4,0,0.8,0,1.2
		c27.6,2.5,55.1-1.9,82.7-1.6c-8.6-0.1-16.4-3.2-25.9-0.9c-8,1.9-17.5,0.2-26.3,0.3C2392.1-3.1,2381.9-2.7,2371.7-2.3z
		 M2603.6,109.9c2.9-17.6,5.9-35.1,8.8-52.7C2599.3,73.9,2606.6,92.4,2603.6,109.9z M2525.7,514.2c1.5-3.4,2.5-6,3.7-8.5
		c5.6-11.1,11.4-22.2,16.9-33.4c0.7-1.4,0.6-3,0.9-4.6C2536.1,478.8,2523.9,506.3,2525.7,514.2z M2430.9,665.4
		c8.3,3.5,50.2,7.6,59.1,5.5c-11.9-5-23.4-7-36-5.8c3.2,0.5,6.3,0.9,9.5,1.4C2452.7,669.1,2442.5,665.9,2430.9,665.4z M2562.2,298.3
		c-3.8,19.5-0.7,38.8,5.3,57.9c-0.2-9.5-2.3-19-3.4-28.5C2563,317.9,2562.8,308.1,2562.2,298.3z M2543.8,381.6
		c-1.1,1.8-2.1,2.9-2.4,4c-4.1,16-8,32-11.9,48c-0.2,0.9,0.9,1.9,1.4,2.9c0.9,0,1.7-0.1,2.6-0.1
		C2536.9,418.5,2540.3,400.5,2543.8,381.6z M2334.4,134.2c-11.3-1.5-22.2-4.8-35.5-3.7c2.9,1.4,4.5,2.2,6.1,2.9
		c-4.4,0.1-8.4-0.7-12.5-1.3c-4.1-0.6-8.2-1.1-12.3-1.6c-0.1,0.4-0.1,0.8-0.2,1.2C2297.6,137.8,2316.1,135.2,2334.4,134.2z
		 M2272.2,650.9c-0.1,0.4-0.2,0.8-0.3,1.3c5.4,0.9,10.9,1.9,16.3,2.8c0.8,0.1,2.3,0.1,2.4-0.1c2-5.1,5.7-1.3,8.5-0.7
		c8.4,1.6,16.8,3.5,25.1,5.3c0.2-0.5,0.3-0.9,0.5-1.4C2307.9,652.8,2291.2,647.3,2272.2,650.9z M2259.8,645.2
		c-18.1-2.7-35.9-1.8-54.2,1.9C2224.4,650.7,2242,646.5,2259.8,645.2z M2333.3,653.8c0.1-0.5,0.2-0.9,0.3-1.4
		c4.2,0.4,8.4,0.8,12.5,1.2c-4.1-2.8-22.4-4.7-34.4-3.2c5,1.1,8.6,1.7,12,2.8c6.6,2.1,15.3,1.1,19,7.3c0.3,0.5,1.8,0.7,2.7,0.8
		c3.9,0.5,7.9,0.8,11.8,1.2c0.2-0.5,0.5-1,0.7-1.4C2349.7,658.7,2341.5,656.2,2333.3,653.8z M2402-7.2c-18.4-1.9-36.9-3.8-55.3-5.7
		c-0.1,0.4-0.1,0.9-0.2,1.3C2364.4-5.9,2383.1-5.9,2402-7.2z M2413.9-61c3-10.2,5.8-19.4,8.4-28.6c0.3-1-0.7-2.3-1.5-4.3
		C2414.2-85.8,2410.3-67.6,2413.9-61z M2490.1,953.6c-0.7-0.1-1.4-0.2-2.1-0.3c-3.4,9-7.3,18-7.3,27.5c0,0.9,0.4,2.1,1.2,2.6
		c1,0.7,2.7,0.8,4.1,1.1c0.3-1,0.9-2.1,0.8-3.1c-0.2-2.5-1.3-5-0.9-7.3C2487,967.2,2488.7,960.4,2490.1,953.6z M2567.3,298.4
		c-1,15.2-1.1,30.2,3.5,45.1c0.8-0.1,1.6-0.1,2.4-0.2C2571.2,328.3,2569.3,313.4,2567.3,298.4z M2567.8,245.3
		c-0.7-0.1-1.4-0.1-2.2-0.2c-3.7,9.7-6.2,19.4-1.7,29.2c0.7,0,1.4,0,2.1,0C2566.7,264.7,2567.3,255,2567.8,245.3z M2570.3,235.9
		c-0.7,0.1-1.4,0.1-2.1,0.2c3.2,19.1,6.5,38.2,9.7,57.4c0.6-0.1,1.2-0.1,1.9-0.2C2576.7,274.2,2573.5,255,2570.3,235.9z
		 M2300.5,839.3c-0.1,0.5-0.2,0.9-0.3,1.4c14.8,1.4,29.7,2.7,44.5,4.1C2330.5,840.1,2316,837.2,2300.5,839.3z M2573.1,317
		c5.7-14-0.3-27.6-3.2-41.4C2570.9,289.4,2572,303.2,2573.1,317z M2598.9,126.5c0.9,0,1.7-0.1,2.6-0.1c-1.6-18.9-3.1-37.8-4.7-56.7
		c-0.4,0-0.8,0-1.2,0C2596.6,88.7,2597.8,107.6,2598.9,126.5z M2139.1,824.2c0.1,0.9,0.2,1.8,0.3,2.7c16.8-0.6,33.6-1.2,50.3-1.8
		c0-0.3,0-0.6,0-0.9C2172.8,824.2,2156,824.2,2139.1,824.2z M2355.7,652.3c-0.3,0.6-0.6,1.1-0.8,1.7c14.1,3.8,28.2,7.6,42.3,11.4
		c0.3-0.5,0.5-1.1,0.8-1.6c-7.2-1.9-14.3-3.8-21.5-5.7c-1-0.3-2.6-0.2-2.9-0.7C2369.5,651.7,2361.8,653.7,2355.7,652.3z
		 M2592.1,139.6c-2.8,10.8-5.5,20.8-8.1,30.8c3.8-6.4,6.5-13.1,10.3-19.4C2596.8,146.8,2596.2,143.7,2592.1,139.6z M2260.2,287.9
		c0.1,0.6,0.3,1.3,0.4,1.9c10.9-0.8,21.7-1.6,32.6-2.3C2281.6,282.1,2271,285.9,2260.2,287.9z M2296.4,291.3c0,0.5-0.1,1-0.1,1.5
		c15.4,2.3,23.6,1.6,31.6-2.6c-0.1-0.5-0.1-0.9-0.2-1.4C2317.2,289.7,2306.8,290.5,2296.4,291.3z M2076.8,810.9
		c-0.2,0.6-0.4,1.2-0.7,1.8c1.9,0.9,3.9,2.7,5.8,2.7c10.2-0.2,20.4-0.9,30.6-1.3c0-0.4,0-0.8,0-1.2
		C2100.6,812.2,2088.7,811.6,2076.8,810.9z M2600.3,39.2c-0.6-0.1-1.2-0.1-1.8-0.2c-2.6,10-5.3,19.9-7.9,29.9c0.4,0,0.7,0.1,1.1,0.1
		c1.6-3.9,3.2-7.9,4.9-11.8c1.2,0.3,2.1,0.6,3.8,1C2600.3,51.6,2600.3,45.4,2600.3,39.2z M2299.8,829.4c-21.3-3.3-41.2,3.7-63.2,3.4
		c8.4,3.7,14.8,0.4,21.7-0.3C2272.1,831,2286,830.4,2299.8,829.4z M2524,496.2c-0.8-0.1-1.6-0.1-2.4-0.2c-1.5,9.1-3,18.2-4.7,28.3
		c1.9-1.9,2.6-3.3,3.8-3.6c5.3-1.1,4.3-3.2,2.7-6c-1.2-2.1-1.4-4.7-1.3-7C2522.4,503.8,2523.4,500,2524,496.2z M2411.4,151
		c0.1,0.5,0.2,1.1,0.3,1.6c12.2,2.2,23.3-1.9,35-3.2c-0.1-0.4-0.1-0.9-0.2-1.3C2434.7,149.2,2423,150.1,2411.4,151z M2495.8,804.5
		c0.8,0,1.7-0.1,2.5-0.1c0-6.2,0-12.4,0-18.6c0-6.3,0-12.6,0-18.8c-1.5,2.7-2.4,5.5-2.4,8.3C2495.7,785,2495.8,794.7,2495.8,804.5z
		 M2130.9,635.2c1.6,4.7,13.6,5.3,34.3,2.3C2153.7,636.8,2142.5,636,2130.9,635.2z M2549.5,351.8c-0.8,0-1.6-0.1-2.4-0.1
		c-1.9,8.1-3.8,16.1-6,25.4c2.4-1.4,4.3-1.9,4.4-2.6C2547,366.9,2548.2,359.4,2549.5,351.8z M2101,961c0.8,0.1,1.6,0.2,2.4,0.3
		c2-11.2,3.9-22.4,5.9-33.7c-0.5-0.1-1.1-0.1-1.6-0.2C2105.4,938.7,2103.2,949.9,2101,961z M2425,0.6c0,0.4,0,0.8,0,1.2
		c12.5,2,24.8,0.9,37.1-1.2C2449.7,0.6,2437.3,0.6,2425,0.6z M2404.9,475.3c-0.1,0.3-0.2,0.5-0.2,0.8c5.6,0.9,11.1,1.8,16.6,2.8
		c8.3,1.5,8.3,1.5,14.8-0.9C2425.7,477.1,2415.3,476.2,2404.9,475.3z M2481,307.2c-0.1,0.6-0.2,1.2-0.3,1.8
		c12.9,1.2,25.7,2.5,38.6,3.7c0.1-0.4,0.1-0.8,0.2-1.2C2506.6,310,2493.8,308.6,2481,307.2z M2350.3,295.9c10.3,4.4,20.1,1.1,27.5,0
		C2370.3,295.9,2360.3,295.9,2350.3,295.9z M2543.8,493c-3.4,8.5-6.8,17-10.2,25.5C2537.2,510.1,2546.3,502.9,2543.8,493z
		 M2555.3,9.8c-13.2,0-25.5,0-37.9,0c0,0.6,0.1,1.2,0.1,1.8C2529.8,11,2542.1,10.4,2555.3,9.8z M2596.9,14c0.2-0.5,0.5-1,0.7-1.6
		c-12-2.1-24.2-3.7-36.8-3.8C2572.8,10.4,2584.9,12.2,2596.9,14z M2326.5,293.8c0.3,0.9,0.5,1.7,0.8,2.6c7.8-1,15.6-2.1,23.4-3.1
		c-0.1-0.6-0.3-1.2-0.4-1.8C2342.3,292.2,2334.4,293,2326.5,293.8z M2391.4,297.8c-6.2,0.6-11.6,1.1-17,1.6c0,0.5,0.1,1,0.1,1.5
		c4.9,0.6,9.8,1.2,14.8,1.8C2390.1,301,2390.6,299.8,2391.4,297.8z M2209,459.4c-5.9-0.6-11.4-1.1-18.4-1.8
		C2198.5,463.6,2200.4,463.8,2209,459.4z M2268.1,284.2c0-0.4,0-0.9,0-1.3c-5.3-0.3-10.6-0.6-15.9-1c-0.4,0.4-0.8,0.9-1.2,1.3
		c1.2,0.8,2.5,2.5,3.7,2.4C2259.2,285.4,2263.6,284.7,2268.1,284.2z M2338.4,143.6c0,0.2,0.1,0.4,0.1,0.6c3.4-0.3,6.8-0.7,10.2-1
		c3.7-0.4,7.5-0.6,11.2-1.1c3.2-0.5,6.3-1.3,9.4-2c-0.1-0.2-0.1-0.4-0.2-0.6C2358.9,140.9,2348.7,142.3,2338.4,143.6z M2549.7,13.1
		c0,0.3,0,0.6,0,0.9c9.2,0,18.5,0,27.7,0c0-0.3,0-0.6,0-0.9C2568.2,13.1,2558.9,13.1,2549.7,13.1z M2403.3,661.7
		c-0.2-4.2-5.1-5.5-17-5.2C2392.1,658.3,2397.3,659.9,2403.3,661.7z M2439.2,663.5c0.1-0.7,0.3-1.3,0.4-2c-5.3-0.6-10.6-1.2-16-1.8
		c-0.1,0.5-0.2,1-0.3,1.6C2428.7,661.9,2434,662.7,2439.2,663.5z M2405.8-66.6c0.6,0.1,1.2,0.2,1.8,0.3c1.7-6.7,3.4-13.4,5.2-20.1
		c-0.4-0.1-0.8-0.1-1.2-0.2C2409.7-79.9,2407.7-73.2,2405.8-66.6z M2616.6,13.4c0.6,0.1,1.2,0.3,1.8,0.4c0.4-5.5,5-10.4,5.2-15.9
		c-0.7-0.1-1.4-0.2-2.2-0.3C2619.8,2.8,2618.2,8.1,2616.6,13.4z M2476.4,946c0.6,0.1,1.1,0.2,1.7,0.4c2.1-5.9,4.2-11.8,6.2-17.7
		c-0.5-0.1-0.9-0.2-1.4-0.3C2480.8,934.2,2478.6,940.1,2476.4,946z M2267,649.2c-0.1-0.6-0.2-1.2-0.3-1.8
		c-5.9,0.6-11.7,1.1-17.6,1.7c0.1,0.6,0.2,1.2,0.3,1.7C2255.3,650.3,2261.2,649.7,2267,649.2z M2537.8,448.1
		c0.4-3.2,0.7-6.1,1.1-9.2C2530.1,441.6,2533.7,444.7,2537.8,448.1z M2129.3,822.7c-5.9,0.6-10.6,1-16.2,1.5
		C2121.6,826.1,2125.8,825.8,2129.3,822.7z M2537.4,524.8c0.4,0,0.8,0.1,1.2,0.1c1.9-4.3,3.7-8.7,5.6-13c-0.8-0.1-1.6-0.3-2.3-0.4
		C2540.4,515.9,2538.9,520.4,2537.4,524.8z"/>
	<path id="XMLID_929_" class="st0" d="M2211,655.5c16.9-2.6,34-0.3,51.1,1.8c4.8,0.6,9.7,0.6,14.5,1.3c22.1,2.9,44.2,6,66.3,9
		c0.8,0.1,1.7,0.4,2.5,0.3c15.5-2.6,30.1,1.8,45.1,2.9c11.1,0.8,22.2,2,34.7,3.2c-1.2,7.2-2,14.6-3.7,21.9
		c-4.8,20.5-11.4,40.8-11.4,61.9c0,7.6-2.2,15.1-3.7,22.7c-0.7,3.3-2.7,4.9-8.3,4.3c-15.9-1.7-31.9-2.5-47.8-4.1
		c-10.1-1-20-3.4-30.1-4.5c-16.3-1.7-32.7-2.7-49.1-4.4c-14.2-1.5-28.3-3.9-42.5-5.3c-15.5-1.5-31.1-2.5-46.7-3.5
		c-5.6-0.3-7-1.5-5.4-5.8c4.3-11.7,7.9-23.5,11.6-35.3c4.3-13.9,8.2-27.9,12.8-41.7C2203.7,671.8,2207.5,663.9,2211,655.5z"/>
	<path id="XMLID_917_" class="st0" d="M2481.4,799.6c-5.7-2.6-10.6-4.8-16.9-7.7c-0.9,10.3-1.7,19.5-2.4,28.5
		c-37.7-3.2-74.9-8.5-112.7-9.7c-0.1,0.5-0.2,1.1-0.3,1.6c37.2,3.5,74.5,7,112.3,10.6c-1.1,6.2-2.1,11.8-3.3,18.2
		c-7.1-1-13.7-2.2-20.4-2.8c-38.1-3.5-76.3-6.7-114.5-10.5c-8.6-0.8-17.5-0.4-25.7-3.9c-3.8-1.6-9.5-1-14.3-1.2
		c-14.3-0.5-28.7-0.3-42.9-1.6c-34.5-3.1-68.7-7.2-103.2-10.2c-20.8-1.8-41.8-2.5-62.6-3.7c-1-0.1-2-0.2-3.6-0.5
		c5-13.2,9.9-26.1,14.9-39.5c2,0.6,4.7,1.4,7.7,2.4c2.7-3.6,7.2-3,12.2-2.8c15.8,0.6,31.6,0.7,47.4,1.3c9.5,0.3,19,1.1,28.6,2.4
		c-27.6,6.2-56.4,6.8-84.6,9.6c0.1,0.7,0.2,1.4,0.3,2.2c5.2-0.3,10.3-0.8,15.5-1c27.4-1.2,53.9-6.7,81-9.3
		c9.8-0.9,21.3-1.2,29.8,1.7c12.4,4.4,25.1,3.4,37.5,4.8c17.8,2.1,35.9,3.3,53.8,5c29.4,2.8,58.8,5.6,88.1,8.6
		c15.4,1.6,30.8,3.7,46.2,5.4c4.2,0.5,8.6,0.5,12.8,0.8c0.2-0.6,0.5-1.3,0.7-1.9c-2.6-0.7-5.1-1.7-7.8-2
		c-12.9-1.4-25.9-2.6-38.8-3.8c-2.9-10.4,3.3-20,3.8-29.7c0.6-13.7,6.8-26.7,7.3-40.3c0.3-7.9,3.6-15.8,5.2-22.2
		c-1.2-2.4-2.5-3.6-2.3-4.6c1.5-6,3.5-11.9,5.2-17.8c1.1-3.8,3.9-4.9,9.1-4.4c15.1,1.5,30.2,2.8,45.3,4.1c2.3,0.2,4.6,0,9.1,0
		c-3.3-3.6-5.2-6.3-7.8-8.4c-4.3-3.4-6.3-7.2-5.7-11.9c1.3-10.3,2.2-20.6,3.4-31.3c9.9,2.7,11.2,2.2,12.6-4.3
		c1.8-8.7,3.2-17.5,5.5-26.2c1.7,23-8,45.1-10.1,67.8c0.5,0.1,1,0.1,1.6,0.2c2.9-12,5.7-24,8.6-36.1c0,8.4,2.8,17.4-0.6,24.8
		c-6.8,14.8-5.7,30-8.8,44.9c-1,4.6-4.5,8.9-5.5,13.5c-2.2,10.3-2.3,20.9-5.5,31c-4.5,14.2-4.5,28.6-6,43c-0.1,1.1,0,2.1,1,3.3
		c1.1-5.5,2.2-11.1,3.4-16.6c0.3,0,0.6,0,0.9,0.1C2484.4,779.5,2482.9,789.3,2481.4,799.6z M2318.5,823.3
		c-28.9-8.8-59.2-12.6-89.7-16C2258.7,812.6,2288.6,818,2318.5,823.3z M2443.1,729.6c-6.8,6-25.8,52.2-23.8,57.5
		C2427.3,767.9,2435,749.4,2443.1,729.6z M2157.3,791.5c0,0.3,0,0.6,0,0.9c22.9,0,45.8,0,68.7,0c0-0.3,0-0.6,0-0.9
		C2203.2,791.5,2180.2,791.5,2157.3,791.5z M2420.6,807.8c-10.8-4.1-54.7-6.2-61.1-3.3C2380.2,805.6,2400.4,806.7,2420.6,807.8z
		 M2474.4,714.7c0.6,0,1.1,0,1.7,0c3.5-11.6,7-23.2,10.4-34.8C2480.7,691.2,2473.1,702.2,2474.4,714.7z M2460.5,734.6
		c-7.9,6.9-14.7,30-11.1,36C2453,759,2456.8,746.6,2460.5,734.6z M2138,793.1c-0.1-0.4-0.2-0.8-0.3-1.2c-14.8,1.1-29.7,2.1-44.5,3.2
		c0.1,0.6,0.2,1.2,0.3,1.9C2108.3,795.7,2123.2,794.4,2138,793.1z M2453.1,727.6c-2.3,6.6-4.5,12.8-6.4,18.4
		C2453.7,742.2,2457.3,733.4,2453.1,727.6z M2467,763.8c-0.6-0.1-1.1-0.2-1.7-0.3c-2.5,6.4-8.4,12.1-6.4,19.6
		C2461.6,776.6,2464.3,770.2,2467,763.8z M2451.4,703.6c0.9-0.1,1.9-0.2,2.8-0.4c-0.6-2.9-1.3-5.8-1.9-8.7c-1,0.1-1.9,0.2-2.9,0.4
		C2450.1,697.8,2450.7,700.7,2451.4,703.6z"/>
	<path id="XMLID_916_" class="st0" d="M2227.3,585.6c10.6-35.6,20.9-70.3,31.4-105.7c4.1-0.1,8.5-0.6,12.8-0.4
		c22.1,1,44.2,2.1,66.3,3.3c11.6,0.6,23.2,1.3,34.7,2.4c16.9,1.5,33.7,3.6,50.7,4.9c9.3,0.8,18.8,0.6,28.3,1
		c8.7,0.3,9.4,1.5,8.1,7.7c-3.1,14.4-5.7,28.9-8.5,43.4c-1.4,7.1-3,14.1-4.1,21.2c-0.5,3.5,0.2,7,0.1,10.5c-0.1,2.5-0.6,4.9-1,7.4
		c-0.9,6.2-1.8,12.4-2.5,18.6c-0.3,3-1.8,4.6-6.3,4.2c-22.6-2.1-45.4-1.6-67.8-5.5c-11.6-2-23.9-1.6-35.9-2.8
		c-9.2-0.9-18.1-3-27.3-3.7c-22.7-2-45.4-3.5-68.1-5.2C2234.6,586.6,2231.1,586.1,2227.3,585.6z"/>
	<path id="XMLID_915_" class="st0" d="M2476.1,431.4c-12.8-0.5-25.2-0.6-37.6-1.4c-19.4-1.2-38.8-2.5-58-4.6
		c-20.6-2.2-41-6-61.6-8.1c-9.5-0.9-19.4-3.6-29.3-0.6c-1.4,0.4-3.2-0.1-5.6-0.2c1.3-5.5,2.5-10.6,3.8-15.8c2.9-10.8,6-21.6,9-32.3
		c1.7-6.2,5.9-12.7,4.6-18.5c-1.4-6.7,1.6-12.3,2.7-18.3c1.4-8.4,4.7-16.7,7.7-24.9c1.2-3.3,4.2-4.7,9.6-4.2
		c25.3,2.5,50.8,4.3,76.1,6.8c13.5,1.4,26.8,4,40.3,5.6c15.6,1.8,31.3,3.2,47,4.5c4,0.3,5.8,0.9,4.7,4.3c-0.7,2-0.1,4.3-0.1,6.6
		c1.8,0,3.2,0,5.3,0C2484.9,363.4,2481,396.9,2476.1,431.4z"/>
	<path id="XMLID_908_" class="st0" d="M2508,482.2c-1.6,0.2-3.3,0.8-4.8,0.6c-22.1-2.4-44.1-5-66.2-7.2c-17.4-1.7-34.9-2.7-52.2-4.4
		c-15.2-1.5-30.3-4.1-45.6-5.5c-17-1.5-34.1-2.7-51.2-3.2c-31.9-1-63.5-3.8-94.9-7.7c-3.7-0.5-7.4-0.7-11.9-1.1
		c3.3-10.1,6.1-19.8,9.9-29.3c0.9-2.4,4.1-5.6,9.6-3.5c1.4,0.5,3.5,0.3,5.4,0.4c0.4,1.4,0.9,2.9,1.8,5.7c4.4-8.4,12.7-4.8,19.5-5.3
		c2.8-0.2,5.6-0.2,8.4-0.3c0.1-0.6,0.1-1.1,0.2-1.7c-7.4-0.7-14.8-1.4-22.8-2.2c5.7-21,11.4-41.9,17.1-62.7c0.3,0,0.7,0.1,1,0.1
		c-1,5.7-2.1,11.5-3.1,17.2c0.7,0.1,1.4,0.1,2,0.2c1.3-4.9,2.6-9.8,3.8-14.7c4.9-19.1,9.9-38.1,14.6-57.2c1.2-4.7,4.6-6.8,11-7.1
		c7.5-0.4,14.5-0.5,21.4,2.4c2.8,1.2,7,0.5,11.1,0.6c-10.7,39.6-21.4,79.1-32,118.5c-0.1,0.4,0.8,0.9,2.3,2.4
		c1.8-5.8,3.4-10.7,4.7-15.5c8.1-29.4,16-58.7,24.1-88.1c1.2-4.3,2.9-8.4,4.4-12.6c1.8-5,3-5.4,10.2-3.9
		c-3.5,19.6-17.9,37.6-17.4,57.8c0.7,0.1,1.4,0.3,2.2,0.4c1.1-3.2,2.1-6.4,3.2-9.6c0.6,0.1,1.2,0.2,1.8,0.3
		c-1.3,6-2.1,12.1-4.1,18.1c-4.7,14.3-10.1,28.5-14.7,42.9c-1.4,4.4-1.2,9-1.9,14.4c-11.5-0.6-23.4-1.2-35.4-1.9
		c-0.1,0.8-0.2,1.6-0.3,2.5c15.1,1.2,30.2,2.4,46.7,3.7c-24.4,3.3-48.2,4.4-71,9.1c0.2,0.7,0.4,1.4,0.5,2.1
		c7.6-1.1,15.2-2.3,22.9-3.1c24.5-2.5,48.9-5.8,73.4-7c16.5-0.8,33.3,1.2,49.9,2.6c18.3,1.6,36.4,4.2,54.7,6.1
		c15.7,1.6,31.4,2.9,47.1,4.2c14.6,1.2,29.3,2.2,43.9,3.1c4.7,0.3,6.6,1.8,5.6,5.1c-2.6,9.1-5.3,18.2-7.8,27.4
		c-0.7,2.6-3,5.9,2.9,7.3V482.2z M2439.8,452.8c-20.5-8.2-125.9-14.3-136-8.3c22.3,0.6,45.3,0.5,68.1,1.9
		C2394.8,447.9,2417.4,450.7,2439.8,452.8z M2351.7,455.5c-7.6-3.4-76.5-7.4-83.6-4.4c0.7,0.4,1.4,1,2.1,1
		C2297.6,453.4,2325.1,454.5,2351.7,455.5z M2455.7,467.4c0.1-0.5,0.2-1.1,0.3-1.6c-17.8-1.2-34.5-8-52.9-5.8
		c-0.1,0.6-0.2,1.2-0.3,1.8C2420.4,463.6,2438.1,465.5,2455.7,467.4z M2281.8,373.9c-5.4,6-14.4,38.3-10.7,42.5
		C2274.8,401.7,2278.2,388.1,2281.8,373.9z M2225.8,412.2c0.9,0.1,1.8,0.2,2.8,0.4c3.2-13.7,6.4-27.3,9.6-41
		c-0.7-0.1-1.4-0.2-2.1-0.3C2232.6,385,2229.2,398.6,2225.8,412.2z"/>
	<path id="XMLID_903_" class="st0" d="M2292.5,282.3c2.1-1,4.1-2,6.2-2.9c-0.1-0.3-0.1-0.6-0.2-1c-2.4,0.2-5.2-0.1-7.3,0.7
		c-7.4,2.8-14.9,1.2-22.2,0.6c-7.5-0.6-14.9-1.9-22.4-2.8c-5.8-0.7-8-2.9-6.8-7.1c2.4-8.6,4.8-17.3,7-26c0.8-3,3.5-2.7,6.3-2.4
		c18.8,2.1,37.6,4.2,56.4,6.3c7.7,0.9,15.3,1.8,22.8,2.7c0.8,2.6,1.6,5.3,2.4,8c0.7,0,1.5,0,2.2-0.1c0.3-2.4,0.6-4.8,1-8.6
		c54.4,6.5,108.6,13,161.7,19.3c0,4.3,0,7.4,0,10.4c1.7-0.1,3.4-0.2,5.8-0.3c-1-1.4-1.7-2.1-2.1-2.9c-2-3.9,1.1-6.7,6.7-6.2
		c9.4,0.9,18.9,1.7,28.3,2.5c2.4,0.2,4.8,0,7.2,0c0.2-0.7,0.3-1.4,0.5-2.1c-3.9-0.6-7.7-1.4-11.6-1.8c-4.4-0.5-8.8-0.6-13.2-1
		c-4.4-0.4-8.8-0.8-14.4-1.3c2.5-5.1,5.1-9.9,7-14.9c2.1-5.3,5.9-11.1,4.7-16.2c-3.6-16.3,6.3-31.2,7.5-46.9
		c0.5-5.9,1.9-11.7,3.2-18.7c10.3,1.5,20,3,29.8,4.4c1.6,0.2,3.4,0,5.1,0c-0.2-1.1-0.1-2.3-0.8-3.3c-3.9-6-7.9-12-6.3-19
		c1.8-8,3.3-16,5.2-23.9c0.5-2.2,2.1-4.2,3.5-6.9c5.3,3.8,10.1,6.8,7.4,12.3c-0.6,1.2-0.7,2.5-0.8,3.7c-0.9,13.7-1.5,27.4-2.8,41.1
		c-1.4,15.5-3.4,31.1-5.1,46.6c-0.8,6.6-1.5,13.2-2.5,19.8c-1.1,7-2.2,13.9-3.9,20.8c-0.3,1.3-3.3,3.4-4.9,3.3
		c-3.6-0.2-4.7,0.9-5.1,3c-1.7,10.2-3.3,20.4-4.9,30.6c0,0.2,0.4,0.4,1.8,1.6c2.9-11.1,5.6-21.5,8.3-32c6.6,1.8,7.5,6,8.4,9.7
		c0.5,2.2-0.6,4.6-1.1,6.9c-1.4,6.6-2.9,13.1-4.5,19.7c-0.2,0.9-0.9,1.8-2.9,2.6c0-5.1,0-10.1,0-15.2c-0.9-0.1-1.9-0.1-2.8-0.2
		c-0.4,2.4-0.9,4.8-1.1,7.2c-0.2,2.8,0,5.6,0,8.6C2463.2,301.5,2378,291.9,2292.5,282.3z M2264,257.8c-13.8-3.6-16.7-3.5-19.5,0
		C2250.4,257.8,2256.2,257.8,2264,257.8z M2404.4,269c-0.2,0.5-0.3,1-0.5,1.5c7.3,1.3,14.5,2.7,21.8,4c0.2-0.5,0.3-0.9,0.5-1.4
		C2418.9,271.8,2411.7,270.4,2404.4,269z M2302.1,268.9c0-0.5,0-1,0-1.5c-5.7,0-11.3,0-17,0c0,0.3,0,0.6-0.1,0.8
		C2290.7,268.4,2296.4,268.6,2302.1,268.9z"/>
	<path id="XMLID_896_" class="st0" d="M2376.6,149.1c8.5-1.6,16.9-3.6,25.5-4.7c8.5-1,17.2-1,25.9-1.4c-4.1-3.5-11.4-3.7-17.7-1.9
		c-4.6,1.4-10,1.1-14.9,2.1c-8.5,1.7-16.8,3.7-25.2,5.6c-1.6,0.4-3.3,0.9-4.8,0.8c-7.8-0.7-15.5-1.7-23.4-2.8
		c21.7-1.2,41.4-11.4,64.6-6.5c0-0.5,0-1-0.1-1.5c-3.3-0.5-6.5-1-10.5-1.7c1.3-0.9,2.3-1.6,3.7-2.6c-8.8,0.5-17.1,1-25.9,1.5
		c0-0.4,0,0.4,0,0.6c-7.4,0.9-14.5,1.8-21.5,2.7c-6.6,0.8-13.4,1.4-19.9,2.6c-8.4,1.6-16.6,1.9-25-0.1c-2-0.4-5.4-2.2-6,1.5
		c0,0.2-3.6,0.5-4.7,0c-3.2-1.7-5.9-3.8-9.8-6.4c20.9,1.7,40.2,2.1,59.1-1.7c1.3-0.3,2.9,0.4,4.3,0.3c3.4-0.2,6.8-0.6,10.1-0.9
		c0-0.5-0.1-1-0.1-1.5c-5.5-0.9-11-1.7-14.6-2.3c-1.6,1.6-2.4,2.8-2.7,2.7c-3.5-0.9-6.9-2-10.4-3.1c-1.9-0.6-3.7-1.6-5.7-1.8
		c-11-1.5-22-2.8-33-4.1c-1.5-0.2-3.2,0.3-5.4,0.5c1,1.6,1.6,2.7,2.8,4.7c-5-1.2-8.8-2.1-13.5-3.1c1.9-5.6,3.9-11.2,5.7-16.7
		c1.7-5.1,3.5-10.2,5.2-15.4c1-3.1,1.8-5,7.9-4.1c7.2,1.1,14.9,0.3,22.6-0.6c-3-0.4-5.9-0.9-8.9-1.2c-3.2-0.3-4.4-1.3-3.7-3.7
		c1.8-6,3.2-12.1,5.1-18.1c0.3-1,2.5-1.6,3.8-2.4c2.7-8.4,5.5-17,8.1-25.7c2.8-9.3,5.2-18.8,8.4-28c1.4-4.1,4.5-7.9,7.5-13.1
		c18.1,2.1,38.1,4.4,58.3,6.7c-3.7,10.3-7.1,20.1-10.6,29.8c-0.6-0.1-1.2-0.2-1.8-0.3c-1.2-9.7,4.5-18.3,8.7-27.1
		c-0.7-0.2-1.4-0.4-2-0.6c-2.3,4.1-5.2,8.1-6.8,12.4c-2.5,6.9-6.9,13.9-1.7,21.3c0.4,0.6,0.2,1.6-0.2,2.3
		c-3.9,7.3-7.8,14.6-12.2,21.8c1.3-8.9-0.3-18.1,6.6-26.6c-4.1-4.3-0.4-8.9,1.1-13.5c2-6.4,4.5-12.7,6.8-19c-0.7-0.2-1.4-0.4-2-0.6
		c-1.2,1.6-3.1,3-3.5,4.7c-3.6,12.8-7.7,25.5-10.3,38.3c-3.2,16.1-5.1,32.4-7.6,48.5c-7.9-0.5-16-0.9-24.2-1.4
		c0,0.6-0.1,1.1-0.1,1.7c10.7,0.6,21.4,1.2,32.1,1.8c-4.9-2.1-4.6-5.1-3.6-7.8c1.1-3,3.1-5.7,4.9-8.8c0,3.9,0,8,0,12.1
		c0.6,0,1.2,0.1,1.8,0.1c2.1-9.3,4.3-18.5,6.4-27.8c0.7,0.1,1.4,0.2,2.1,0.3c-2.2,9.6-4.2,19.3-6.7,28.8c-1.2,4.5-0.1,6,5.9,6.6
		c29.9,2.9,59.8,5.9,89.7,8.7c9.8,0.9,19.7,1.5,29.6,2.4c4.6,0.4,9.1,1.3,13.6,1.8c13.3,1.3,26.7,2.5,40.1,3.8
		c2.3,0.2,4.5,0.7,5.7,0.9c-2.3,11.4-4.7,22.6-6.8,33.8c-0.6,3.1-2.2,3.8-6.3,3.3c-15.6-2.2-31.3-4.3-47-6.4
		c-18.8-2.6-37.6-5.3-56.5-7.7c-4.4-0.6-8.9-0.1-13.4-0.1c-0.1,0.4-0.2,0.8-0.3,1.1c1.3,0.4,2.6,1.1,4,1.2c11.4,1,22.9,1.6,34.2,2.9
		c12.7,1.5,25.2,3.6,37.7,5.7c2.5,0.4,4.6,2.2,6.5,3.7c13.6,2.6,27.2,5,40.7,7.9c1.8,0.4,2.8,2.6,4.1,4c-0.4,0.6-0.7,1.1-1.1,1.7
		c-9.4-1.2-19-1.7-28-3.7c-11.4-2.5-22.4-6.1-33.5-9.5c-3.6-1.1-6.6-3.3-10.1-4.6c-3.5-1.4-7.2-2.9-11-3.3
		c-23.2-2.7-46.5-4.2-69.3,1.6c-9,2.3-17.8,1.1-26.7-0.2C2376.7,150,2376.6,149.6,2376.6,149.1z M2378.4,119.3
		c41-4.3,82.2-5.4,123.9-1.7C2492.5,111,2397.2,112.1,2378.4,119.3z M2309.4,109.9c0,0.6,0,1.2,0,1.8c21.9,2,43.4-2.6,65.2-2.5
		c0-0.6-0.1-1.2-0.1-1.8C2352.8,108.1,2331.1,109,2309.4,109.9z M2446.7,134.5c20.5,0.6,41,1.1,61.5,1.7
		C2487.8,133.4,2467.4,131.8,2446.7,134.5z M2332.7,67.1c1.1,0.1,2.2,0.1,3.3,0.2c0.6-9.3,1.2-18.5,1.9-27.8c-0.6,0-1.2-0.1-1.8-0.1
		C2334.9,48.7,2333.8,57.9,2332.7,67.1z M2347.9,25.2c-0.4,0-0.8,0-1.2,0c-0.4,4.5-0.7,9-1.1,13.4c0.7,0,1.5,0,2.2,0.1
		C2347.9,34.2,2347.9,29.7,2347.9,25.2z"/>
	<path id="XMLID_890_" class="st0" d="M2129.4,588.4c1.9-0.1,5.5-1,6.8-0.1c3.8,2.7,7.8,1.1,11.8,1.3c14.1,0.6,28.3,1.3,42.4,2.3
		c29.4,2.2,58.8,4.5,88.2,7c9.8,0.8,19.4,2.7,29.1,3.6c13.2,1.1,26.6,1.6,39.8,2.6c21.7,1.7,43.3,3.7,64.9,5.6
		c6.7,0.6,13.5,1,20.1,2c3.2,0.4,6.2,1.8,10.2,3.1c13.8-2.3,27.8,2.3,42.1,3.6c-1.4,12.8-2.9,25-3.8,37.2c-0.3,3.9-1.9,5.3-7.1,4.8
		c-12.5-1.3-25-2.6-37.5-3.8c-19.2-1.8-38.5-3.6-57.7-5.3c-23.9-2.1-47.8-4-71.8-6c-22.7-1.9-45.7-2.5-68-5.8
		c-28.3-4.2-56.9-4.5-85.5-6.2c-9.3-0.6-18.6-1.6-27.8-3c-1.3-0.2-3.1-3.1-2.8-4.5c1.3-7.4,3.1-14.7,4.9-22
		c0.9-3.7,2.3-7.2,3.1-10.9C2131.1,592.6,2130.1,591.1,2129.4,588.4z M2260.8,627.3c0.1-0.4,0.1-0.9,0.2-1.3
		c-8.8-0.8-17.5-1.7-26.3-2.4c-8.6-0.7-17.2-1.3-25.8-2c-8.1-0.6-16-4.1-24.4-2.2c-0.1,0.6-0.1,1.1-0.2,1.7
		C2209.9,623.2,2235.4,625.2,2260.8,627.3z M2472.8,652.4c0-0.6,0.1-1.1,0.1-1.7c-22.3-0.5-44.6-1-66.9-1.5c0,0.3,0,0.7,0,1
		C2428.3,650.9,2450.5,651.7,2472.8,652.4z M2157.7,599c0-0.4,0-0.9,0.1-1.3c-8.3,0-16.6,0-26.3,0
		C2140.9,601.9,2149.4,597.8,2157.7,599z M2386,647.9c0,0.6-0.1,1.1-0.1,1.7c4.7,0,9.4,0,14,0c0-0.2,0-0.5,0-0.7
		C2395.3,648.6,2390.7,648.3,2386,647.9z"/>
	<path id="XMLID_889_" class="st0" d="M2498.9,262.6c-9.4-0.9-18.6-1.5-27.7-2.6c-26.2-3.2-52.8-5.3-78.3-10.4
		c-17.5-3.5-35.5-2.6-53.9-6.9c2.5-5.2,5.1-10.7,7.6-16.1c0.9-1.9,3.3-4-1-5.6c-0.6-0.2-0.6-1.9-0.4-2.9c1-7.1,1.6-14.3,3.4-21.3
		c2.1-8.2,5.2-16.3,7.7-24.5c1.2-3.9,2.5-7.8,3.4-11.8c0.7-2.9,2.1-4.4,6.5-4c26.8,2.2,53.9,2,80.6,6c18.6,2.7,37.7,3.8,56.6,5.2
		c12.5,0.9,14,2.1,12.1,11.4c-1.5,7.4-4.6,14.9-3.7,22.2c2.3,19.8-8.2,37.7-12.2,56.6C2499.3,259.2,2499.2,260.5,2498.9,262.6z"/>
	<path id="XMLID_883_" class="st0" d="M2607.4,8.3c-7-0.1-14.2,0.3-21.1-0.4c-13.7-1.4-27.3-3.7-41-5.2c-18.1-2-36.4-3.7-54.6-5.3
		c-8.8-0.8-18,0-26.4-1.6c-24.6-4.8-50-5.2-75-7.7c-10.7-1.1-21.5-0.8-32.3-1.5c-8.6-0.5-17.2-1.3-25.7-2.2
		c-6.1-0.7-7.5-2.8-5.6-7.2c4.1-9.1,8.2-18.2,12.5-27.8c1.6,0,4,0,6.6,0c0.4,2.5,0.7,4.8,1.1,7.1c0.5,0.3,0.9,0.6,1.4,0.9
		c2.4-8.7,10-6.9,17.4-6c-1.3-0.5-2.6-1.1-3.9-1.4c-5.3-1.3-6-4-4.4-7.4c9-18.7,14.1-38,18.8-57.5c3.6-14.7,9.1-29.2,13.9-43.8
		c1-3.1,8.4-5.1,13-3.8c5.5,1.6,11,3,16.4,4.9c1.5,0.5,3.4,2.2,3.2,3.2c-3.3,13.1-6.8,26.2-10.5,39.2c-4,14-8.3,27.9-12.6,41.8
		c-1.5,5-3.6,9.9-5.3,14.8c-0.5,1.4-0.4,2.8-0.6,4.3c0.6,0.1,1.3,0.3,1.9,0.4c1.1-2,2.6-3.9,3.3-6c5.5-17.5,11-35,16.1-52.6
		c4.3-15,8.1-30.1,12.3-45.8c2.9,1.2,5.2,2.2,6.4,2.7c-2.9,8.3-5.8,16-8,23.8c-0.5,1.9,1.9,4.1,2.3,6.2c0.3,1.6,0.1,3.5-0.7,5.1
		c-4.5,8.5-9.8,16.9-13.6,25.5c-3.9,8.8-6.8,17.9-9.4,27c-0.7,2.4-3.2,6.8,5,6.8c1.5,0,3.9,3.9,4.1,6.2c0.3,2.7-1.1,5.4-1.9,8.4
		c-14.3-0.9-28.2-1.7-42.1-2.6c-0.1,0.6-0.1,1.1-0.2,1.7c9,0.8,18,1.6,27.1,2.3c4.8,0.3,9.6-0.1,14.3,0.3c3.1,0.3,6.1,1.6,9.1,2.4
		c1.5,0.4,3,0.6,4.5,0.8c5.3,0.8,10.7,1.5,16,2.2c8.6,1.2,17.2,2.9,25.9,3.6c14.5,1.2,29.1,1.4,43.6,2.5c24.7,1.9,49.4,4.1,74,6.2
		c1.8,0.2,3.7,0.6,5.4,1.5c-3.8-0.2-7.7-0.5-11.5-0.7c0,0.4-0.1,0.9-0.1,1.3c11.6,1.2,23.1,2.4,36.5,3.8c-1.8,9.9-3.7,19.8-5.5,29.7
		L2607.4,8.3z M2387.7-32.7c0-0.4-0.1-0.9-0.1-1.3c-6.6,0-13.3,0-19.9,0c-6.3,0-12.6,0-18.9,0c0,0.4,0.1,0.9,0.1,1.3
		C2361.8-32.7,2374.8-32.7,2387.7-32.7z M2353.8-22.7c0.1,0.7,0.2,1.4,0.3,2.1c8.2-1.4,16.4-2.9,24.5-4.3c-0.1-0.3-0.2-0.7-0.3-1
		C2370.2-24.8,2362-23.8,2353.8-22.7z M2391.1-131.2c0.6,0.1,1.1,0.3,1.7,0.4c2.1-4.1,4.1-8.2,6.2-12.3
		C2391.9-140.4,2392.9-135.4,2391.1-131.2z M2375.2-72.2c3.5-4.8,6.5-8.9,9.6-13C2379.4-84.9,2377.1-81.8,2375.2-72.2z"/>
	<path id="XMLID_882_" class="st0" d="M2550.6,19.4c-1.1,5.7-2.1,11.5-3.2,17.3c-0.8,3.9-1.3,7.6-0.1,11.7c1.2,4.6-1.2,9.8-2.6,14.6
		c-3.2,11.3-6.8,22.4-9.9,33.7c-0.7,2.6-0.1,5.4-0.1,8.1c0,1.8,0,3.6,0,5.8c-50.9-6.4-100.6-12.6-150.6-18.9
		c1.8-6.1,3.5-12.3,5.4-18.5c6.2-19.8,12.5-39.5,18.8-59.3c0.9-2.8,2.8-4.4,7.1-4c4,0.4,8,0.7,12,1c30.4,1.9,60.8,3.7,91.1,5.7
		C2528.9,17.5,2539.3,18.5,2550.6,19.4z"/>
	<path id="XMLID_878_" class="st0" d="M2500,850.6c0-15.6,0-31.1,0-46.7c0.6-0.1,1.1-0.1,1.7-0.2c0.8,1.9,1.7,3.7,2.5,5.6
		c0.6-0.1,1.2-0.2,1.9-0.3c-6.4-27.4-7.4-54.8-3.6-82.4c-0.8-0.1-1.7-0.1-2.5-0.2c-1.5,7.7-3,15.5-4.5,23.2c-0.4,0-0.7-0.1-1.1-0.1
		c1.4-12.1,2.8-24.2,4.2-36.3c0.4,0,0.8-0.1,1.2-0.1c0.7,1.1,1.5,2.2,2.6,3.9c1.6-1.4,2.6-2.4,3.9-3.5c0.3,0.5,0.6,0.8,0.6,1.2
		c-0.7,16.1-2.1,32.1-2.1,48.2c-0.1,13.2-0.4,26.7,2.7,39.7c3,12.7-3.2,24.2-3.6,36.3c-0.4,11.8-2.3,23.6-3.1,35.4
		c-0.4,6.7-1.9,12.9-7.2,18.5c-4.4,4.7-7.8,10-11,15.3c9.3-3.9,10.8-11.9,18.2-17.1c-6.4,27.5-10.4,55.3-24.9,81.7
		c1.2-6.7,1.9-13.5,3.8-20.1c2.6-8.9,6.4-17.7,9.3-26.6c0.9-2.9,0.3-6.1,1.1-9c0.7-2.8,2.3-5.5,2.4-8.9c-2.7,3.6-5.6,7.2-8.1,11
		c-1.2,1.8-1.4,4-2.9,5.6c-12.6,13.2-12.9,29.1-17.8,44c-0.4,1.2-1,2.3-1.5,3.7c-1.4-6.5,2.7-23.6,6.7-28.8c0.3-0.4,1.2-0.8,1.1-1.1
		c-3.3-11.1,5.1-20.5,7.9-30.8c0.1-0.4-0.2-0.9-0.6-2.4c-1.5,2.5-2.8,4-3.5,5.7c-8,19.2-14.2,38.7-17.7,58.6
		c-1.6,9-1.6,9.4-14.1,9.5c-10.9,0-21.8-1.1-32.7-1.8c-0.9-0.1-2.5-1-2.6-1.6c-0.9-5.6-4.6-11,0.6-16.9c3-3.4,3-8.3,4.2-12.5
		c0.7-2.7,0.7-5.6,1.8-8.2c4-9.4,0.2-18.8,1-28.2c1.4-17.4,1.9-34.9,2.6-52.4c0.1-2.6-0.4-5.2-0.7-8.9c15.9,1.3,31.9,2.6,47.8,3.9
		c0.2-0.6,0.4-1.1,0.5-1.7c-2.3-0.9-4.6-1.8-7-2.7c11.5-1.5,18.2,4.1,15.9,12.4c-4.5,16-8.1,32-12.1,48.1c-1,4.2-2.1,8.4-3.1,12.5
		c0.7,0.1,1.4,0.2,2,0.3c1.4-5.6,2.8-11.1,4.2-16.7c0.6,0.1,1.3,0.2,1.9,0.2c-5.1,20.9-10.1,41.8-15.2,62.7c0.5,0.1,0.9,0.2,1.4,0.2
		c1.3-3.9,2.8-7.8,3.8-11.8c4.8-17.5,9.2-35.1,14.5-52.5c1.6-5.2,5.5-10.1,8.9-14.9c9-12.8,13.4-26.4,14.9-40.7
		c0.3-2.4,1-4.8,1.3-6.1C2497,847,2498.5,848.8,2500,850.6c-0.6,1.7-1.3,3.5-2,5.3c-4.3,11.8-8.4,23.6-13,35.3
		c-1.5,3.7-4.1,7.2-6.2,10.8c0.6,0.3,1.2,0.5,1.8,0.8c1.1-1.1,2.7-2,3.2-3.2c4.8-10.1,10.1-20,13.8-30.3
		C2499.8,863.3,2499.3,856.8,2500,850.6z M2429.2,887c0.6,0,1.1,0,1.7,0c-0.7-6,1.3-12.1-1.2-18c-0.9,0.1-1.7,0.1-2.6,0.2
		C2427.7,875.1,2428.5,881,2429.2,887z M2428.1,932.6c-0.4,0-0.9,0.1-1.3,0.1c0,4.1,0,8.3,0,12.4c0.4,0,0.9,0,1.3,0
		C2428.1,941,2428.1,936.8,2428.1,932.6z"/>
	<path id="XMLID_877_" class="st0" d="M2129.5,828.7c-1.9,7.1-3.7,13.7-5.4,20.4c-6.8,26.4-13.6,52.8-20.1,79.2
		c-2.5,10.1-4.3,20.3-6.6,30.4c-0.3,1.3-1.8,3.4-2.9,3.5c-8.5,0.7-17,1-24.2,1.4c1-9.8,2-18.9,2.9-28.1c-1,0-1.9-0.1-2.9-0.1
		c0,4.5,0.6,9-0.2,13.4c-0.8,4.5-2.7,8.9-4.4,13.3c-0.2,0.6-1.9,1.3-2.9,1.3c-5.4,0.3-10.9,0.4-16.7,0.6c3.5-18,6.5-35.8,10.6-53.5
		c4.3-18.5,9.5-36.9,14.7-55.3c1.9-6.7,5.1-13.1,7.8-19.7c0.2-0.4,0.4-0.9,0.5-1.4c0.7-2.6,0.2-6.5,2.3-7.5c2.5-1.3,7.2-0.2,11,0
		C2105.1,827.2,2117,827.9,2129.5,828.7z"/>
	<path id="XMLID_871_" class="st0" d="M2150.7,585.7c13-38.4,26-77.1,38.9-115.1c2.3-0.1,4.3-0.5,6.2-0.3c5.1,0.6,10.2,1.7,15.3,2.3
		c5.8,0.6,12.2,2.2,17.3,1c16.7-3.9,33.3-3,50.1-1.9c10.2,0.7,20.4,0.8,30.5,1.5c4.7,0.3,9.3,1.4,13.9,3.1c-17.7-0.9-35.3-2-53-2.6
		c-7.2-0.3-14.5,0.4-21.7,0.9c-0.9,0.1-2.1,3.2-2,3.3c4.8,1.9,2.4,4.8,2.2,7.4c-1,10.6-10.1,18.9-14.5,28.5
		c-3.6,7.9-9.9,16-9.5,23.9c0.6,12.6-4.2,24.6-3.4,37.1c0.2,2.9,0.1,6-0.5,8.9c-1.8,8-5.6,9.3-16.2,5.6c2.8-8.3,5.6-16.6,8.5-25.1
		c-3.4-0.1-5.2,0.9-5.9,3.8c-1.4,6.3-3.1,12.5-5.1,18.7c-0.4,1.1-2.6,2.8-3.8,2.7c-14.8-0.6-29.5-1.5-44.3-2.4
		C2153.1,587,2152.6,586.6,2150.7,585.7z M2207.2,560.7c1,0.2,2,0.5,3,0.7c0.8-1.5,1.9-2.9,2.4-4.5c5.9-16.8,11.6-33.7,17.5-50.5
		c3.4-9.5,4.7-19.5,11.9-28.2c1-1.2-0.3-3.5-0.5-5.2c-1.1-0.1-2.3-0.1-3.4-0.2C2226.1,501.9,2219.6,531.9,2207.2,560.7z
		 M2221.5,547.5c-2,1.4-2.7,1.6-2.8,2c-2.6,11.6-5.3,23.2-7.7,34.8c-0.2,1.1,1,2.3,1.6,3.4c0.7-0.1,1.3-0.1,2-0.2
		C2216.8,574.7,2219,561.8,2221.5,547.5z M2185.4,515c-0.8,2.5-1.1,5.2-2.4,7.5c-4,7.3-4,14.9-2.8,22.5c0.2,1.4,2.1,2.7,3.2,4
		c0.7-0.2,1.3-0.4,2-0.6C2179.6,537.1,2185.2,526.2,2185.4,515z M2168.4,581.4c0.1,0,0.2,0.1,0.3,0.1c0.6-11,1.3-22.1,1.9-33.1
		c-0.7,0-1.5,0-2.2-0.1C2168.4,559.4,2168.4,570.4,2168.4,581.4z"/>
	<path id="XMLID_868_" class="st0" d="M2186.6,649.7c-6,20.3-11.5,39.5-17.3,58.7c-5.8,19.2-11.9,38.4-18,58.3c-2,0-5.8,0.2-9.6,0
		c-13.6-0.8-27.1-1.7-40.6-2.8c-1.9-0.1-4.4-0.9-5.2-2c-0.7-1,0.1-2.9,0.9-4.2c1.6-2.4,4.4-4.5,1.6-7.5c-0.6-0.6,0.5-2,0.8-3.1
		c3.3-10.2,6.6-20.4,10-30.5c3.2-9.6,7-19.1,9.9-28.8c3-10,4.9-20.2,8.1-30.1c3.2-10.4-0.3-9.4,15.6-9.4
		C2156.8,648.3,2170.9,649.2,2186.6,649.7z M2111.6,757.3c4.6,0.7,11.4-11.7,9.8-20.3C2118.1,743.8,2114.9,750.4,2111.6,757.3z"/>
	<path id="XMLID_865_" class="st0" d="M2470.3,490.8c15.6,1.1,31.2,2.1,47.1,3.2c-3.9,26.9-7.7,53.2-11.5,79.6
		c0.8,0.1,1.6,0.2,2.4,0.3c1-2.4,2-4.8,3-7.2c0.4,0,0.7,0,1.1,0c2,15.1,3.7,30.3,6.1,45.3c1.7,11.3,4.5,22.4,6.4,33.7
		c0.9,5.1,0.9,10.3,1.3,15.4c-0.7,0-1.3,0.1-2,0.1c-2-5.3-3.9-10.6-5.9-15.9c0.3-0.1,0.6-0.2,0.9-0.3c1.1,1.2,2.1,2.5,3.2,3.7
		c0.5-0.1,0.9-0.2,1.4-0.3c-0.6-1.4-1.5-2.8-1.9-4.2c-2.4-7.4-5.7-14.7-6.7-22.1c-1.5-10.4-1-20.8-1.9-31.3c-0.4-4.8-2-9.5-3.4-15.5
		c-10.6,15.9-6.2,32.5-12.2,47.7c-0.1,0-0.7,0.1-0.8,0c-5.9-7.5-16.4-8-26.4-9.2c-7.7-0.9-15.4-1.5-21.6-2.1
		c0.9-4.1,1.6-8.1,2.7-12.1c2.5-9.3,5.4-18.5,7.7-27.8c0.6-2.4-0.8-5.1-0.4-7.6c1-6.9,2.4-13.9,3.6-20.8c2.4-13.5,4.9-27.1,7.1-40.6
		C2470.2,499,2470.1,495.1,2470.3,490.8z M2459.1,580.9c0.9,0.1,1.8,0.2,2.7,0.4c4.5-8.3,3.7-17.2,6.4-25.7
		c-0.8-0.1-1.5-0.2-2.3-0.3C2463.7,563.8,2461.4,572.4,2459.1,580.9z"/>
	<path id="XMLID_861_" class="st0" d="M2334.4,149.6c-5,25.6-17.1,49-24.8,73.2c0.5,0.1,1.1,0.3,1.6,0.4c0.6-1.1,1.3-2.2,1.7-3.3
		c8.4-21.5,16.8-42.9,25.1-64.4c2.3-5.9,2.3-5.9,11.7-3.8c-1.2,4.9-2.3,9.9-3.8,14.8c-4.8,15.4-10.3,30.8-14.7,46.2
		c-2.4,8.2-2.8,16.8-4.8,25.1c-2.2,9.5-2.9,9.7-17.2,6.9c1.1-4.6,2.1-9.4,3.4-14.8c-2.3-1.5-4.7-0.9-5.5,2.3c-1,3.9-1.6,8-2.5,12.4
		c-13.6-1.5-26.8-3-38.8-4.4c-1.9-8.4,1.8-15.5,3.8-22.8c2.1-7.7,4.9-15.3,8.4-22.7c0,6.3,0,12.7,0,19c0.5,0,1,0.1,1.5,0.1
		c0.5-4.6,1.8-9.2,1.4-13.7c-1.5-17,4.8-32.9,11.1-48.9c1.5-3.7,3.7-4.5,8.5-4.1C2311.5,148,2322.4,148.7,2334.4,149.6z
		 M2330.1,194.3c-7.7,7.3-17.9,42.3-13.8,47.4C2320.9,225.9,2325.5,210.1,2330.1,194.3z M2291.5,191.6c-0.6,0-1.2,0-1.7-0.1
		c-0.7,6.1-1.5,12.2-2.2,18.2c0.9,0,1.9,0.1,2.8,0.1C2290.8,203.8,2291.2,197.7,2291.5,191.6z"/>
	<path id="XMLID_856_" class="st0" d="M2520.9,317.7c-1.9,4.3-3.4,7.9-5,11.5c0.5,0.1,1,0.3,1.5,0.4c1.4-2.8,2.9-5.5,4.3-8.3
		c1.2-2.3,3-3.6,6.7-3c2.8,0.5,5.9,0.4,8.8,0.8c12.4,1.8,13.3,2.1,11.1,12.7c-1.9,9.6-5.5,19.1-7.5,28.7c-2.4,11.2-3.6,22.6-6,33.8
		c-2.5,11.8-5.7,23.5-8.5,35.3c-0.9,3.9-1.5,7.8-2,10.8c-5.8-0.4-12.7-0.8-19.6-1.3c-4-0.3-8.1-0.2-12-0.8c-9-1.4-10.4-4.2-8.6-10.7
		c2.4-8.6,3.5-17.5,5.2-26.2c2.8-14.1,5.6-28.3,8.4-42.4c1.7-8.8,3.4-17.5,4.7-26.4c0.6-4.1,0-8.3-0.2-12.5
		c-0.2-3.2,1.8-4.2,5.9-3.7C2512.1,317.1,2516.3,317.3,2520.9,317.7z M2500.8,374c-0.6,0-1.2-0.1-1.9-0.1c-0.2,0.3-0.6,0.5-0.6,0.8
		c-2.2,17.3-4.3,34.6-6.4,51.9c-0.2,1.4,0.6,2.9,0.9,4.4c1,0,1.9,0,2.9-0.1C2497.4,412,2499.1,393,2500.8,374z M2511.9,349.5
		c-3.9,11.4-6,22.9-2.7,34.7C2510.2,372.6,2511.1,361,2511.9,349.5z M2535.9,346.2c-0.8-0.2-1.5-0.4-2.3-0.5
		c-3.9,8.5-7.8,17.1-11.7,25.6c1,0.2,2,0.5,3,0.7C2528.6,363.4,2532.3,354.8,2535.9,346.2z"/>
	<path id="XMLID_852_" class="st0" d="M2610.9-23.6c-10.9-2.4-22.2-4.6-33.3-7.3c-3.4-0.8-4.6-3.2-3.8-6.1c3.4-12,6.6-24,9.8-36
		c3.7-13.6,7.1-27.1,11-40.7c2.6-8.9,6-17.7,8.7-26.7c1.2-3.9,4.2-4.7,8.8-3.6c7.7,1.7,15.3,3.4,23,5c1.6,0.3,3.7,0.5,5.1,0.1
		c4.7-1.5,6.1-0.1,5.4,3c-2.2,9.2-4,18.4-7.2,27.4c-6.8,19.3-14.7,38.4-21.5,57.7C2614.2-42.5,2613.1-33.8,2610.9-23.6z
		 M2609.7-108.3c0.4,0,0.9,0.1,1.3,0.1c1.2-3.9,2.3-7.8,3.5-11.6c-0.7-0.2-1.5-0.4-2.2-0.5c-2.2,3-4.4,6-6.6,9.1
		c0.4,0.2,0.8,0.3,1.2,0.5c0.9-0.4,1.9-0.8,3.2-1.3C2609.9-110.5,2609.8-109.4,2609.7-108.3z M2629.3-106.1c0.7,0.2,1.3,0.4,2,0.6
		c2.1-3.4,4.1-6.7,6.2-10.1c-0.8-0.3-1.7-0.5-2.5-0.8C2633-113,2631.2-109.5,2629.3-106.1z"/>
	<path id="XMLID_848_" class="st0" d="M2607.3,8.4c2.2-4,4.4-8.1,6.6-12.1c0.4-0.7,0.6-1.4,0.9-2.1c0.6,0.1,1.1,0.1,1.7,0.2
		c-2.5,15.1-5,30.3-7.5,45.4c0.3,0.1,0.7,0.1,1,0.2c0.8-1.8,1.6-3.6,2.4-5.4c0.6,0.1,1.1,0.3,1.7,0.4c-1.8,5-3.7,10-5.5,15.1
		c-0.3,0-0.5-0.1-0.8-0.1c0.4-2.4,0.8-4.7,1.4-8.2c-2.1,1.3-3,1.9-4.2,2.6c0-4.6,0-9.1,0-13.5c-0.2,0-0.4-0.1-0.7-0.1
		c-0.7,1.7-1.4,3.5-2.5,6.2c-1.2-2.1-1.8-3.3-2.5-4.5c-0.5-0.1-1.1-0.2-1.6-0.3c-2,5.5-4.6,10.9-5.7,16.5c-2.8,14.5-4.8,29-7.5,43.5
		c-1.4,7.6-3.5,15.2-5.6,22.7c-0.5,1.9-2.6,3.5-3.1,5.3c-0.4,1.7,0.5,3.6,0,5.8c-1-1.7-1.8-3.5-3.1-5c-2-2.4-2.5-7-9.2-3.4
		c-1.4,0.7-4.8-0.3-7.2-0.9c-4.6-1.1-9.2-2.2-13.6-3.7c-1.2-0.4-2.1-2.6-1.7-3.6c1.5-4,4.1-7.8,5.3-11.9c1.8-5.6,3.4-11.2,3.9-16.9
		c1.4-17.5,8.5-34.3,11.9-51.5c0.7-3.3,2.4-6.6,3.8-10.2c13.4,1.5,27.4,0.1,40.2,6.3c2.6-4.1-0.6-7.6-3.1-11.4
		c3-0.3,5.2-0.5,7.8-0.8c-1.2-1.5-2.3-3-3.4-4.4C2607.4,8.3,2607.3,8.4,2607.3,8.4z M2587.9,33.6c-0.9-0.2-1.9-0.4-2.8-0.6
		c-1.7,4.6-3.4,9.3-5.1,13.9c0.8,0.2,1.5,0.3,2.3,0.5C2584.1,42.8,2586,38.2,2587.9,33.6z M2560.1,59.9c0.8,0.3,1.5,0.5,2.3,0.8
		c1.5-4.5,3-9.1,4.6-13.6c-1-0.2-1.9-0.3-2.9-0.5C2562.7,51,2561.4,55.5,2560.1,59.9z"/>
	<path id="XMLID_847_" class="st0" d="M2122,869.9c1.3,1.6,3.1,3.7,4.7,6c0.5,0.7,0.5,1.8,0.1,2.5c-2.3,3.8-5.3,7.4-7.1,11.3
		s-2,8,3.1,10.6c4.9-14,9.8-28,14.7-42c-0.2,0-0.4-0.1-0.6-0.1c-2.7,4-5.4,8.1-8.1,12.1c-0.9-0.3-1.7-0.6-2.6-0.8
		c3.7-7.1,7.5-14.1,11.2-21.2c-0.6-0.2-1.1-0.4-1.7-0.6c-3.6,4.7-7.2,9.4-11,14.5c0-1.3-0.1-2.3,0-3.3c0.2-1.1,0.7-2.1,1.1-3.2
		c2.7-7.8,5.3-15.6,8.2-23.4c0.5-1.2,2.3-2.9,3.7-3.1c1.3-0.1,2.8,1.7,4.5,2.3c5.5,2,3.7,4.8,2.7,8.1c-4.6,15.1-9.4,30.2-13.2,45.4
		c-2.8,11.3-4.3,22.8-6,34.2c-1.7,10.9-3,21.8-4.5,32.8c-0.6,0-1.1,0-1.7,0c0-16.8,0-33.5,0-50.3c-0.6,0-1.2,0-1.8,0
		c-1.4,20.2-5.3,40.4,0.7,60.7c-7.9,2-11.6-0.2-10.7-6.2c2.2-14.1,5.8-28.2,5.4-42.3c-0.2-7.7,0.7-15,2.6-22.4
		C2117.7,883.9,2120.1,876.2,2122,869.9z"/>
	<path id="XMLID_846_" class="st0" d="M2485.6,815.2c1.8,0.5,3.1,0.8,6.7,1.7c-8.1-10.2-9.8-19.9-5.3-30.2c1.1,0.2,2.2,0.5,3.8,0.8
		c-3.4-27.1-1.2-53.7,6.2-80.1c-1.1,6.8-2.6,13.7-3.1,20.5c-0.8,11-1.3,22.1-1.4,33.1c-0.1,13.6,0,27.1,0.6,40.7
		c0.2,4.9,2.1,9.8,2.9,14.7c0.7,4.3,2.2,8.4-1.5,12.8c-2.1,2.5-1.3,6.4-1.5,9.6c-1.3,17.3-4.3,34.4-15,50.1c-1.8,2.7-5,4.8-7.4,7.3
		c-0.9,1-1.5,2.1-2.1,3.3c-0.8,1.9-1.5,3.8-2.2,5.6c-0.6-0.1-1.1-0.2-1.7-0.3c5.5-18.7,11-37.3,16.5-56c0.4,0,0.8,0.1,1.2,0.1
		c-2.2,8.9-4.4,17.7-6.9,27.8C2482.8,870.8,2489.2,828.4,2485.6,815.2z"/>
	<path id="XMLID_845_" class="st0" d="M2396.3,846.4c-10.5-2.4-21-5-31.7-7.1c-2.2-0.4-5,1.1-8.3,1.9c-19.7-7.9-41.9-7.1-64.6-3.4
		c-3,0.5-6.2,0.5-9.3,0.4c-7.1-0.4-14.2-1.1-21.3-1.6c-0.1-0.6-0.1-1.1-0.2-1.7c10.8-0.8,21.5-1.7,32.3-2.2c11-0.5,22-0.8,33-0.6
		c11.2,0.1,22.4,0.7,33.5,1.5c10.9,0.7,21.9,1.7,32.7,2.9c10.9,1.2,21.8,3,32.7,4.3c10.7,1.3,21.4,2.5,32,4.7
		c-6.2,2.9-12.7,2.8-19.1,1.8c-8.1-1.2-16.1-3.7-24.1-3.7c-8.6,0-16.6-0.5-24.5-2.7c-4.4-1.3-8.7-2.9-13-4.4
		c-0.6,0.6-1.2,1.3-1.9,1.9c1.5,1,2.7,2.5,4.5,3.1C2384.6,843.4,2390.5,844.9,2396.3,846.4L2396.3,846.4z"/>
	<path id="XMLID_844_" class="st0" d="M2544.6,483.5c-11.7,27.7-27.5,54.7-16.9,84.7c-0.1-13.5,2.3-26.8,8.9-39.6
		c-0.6,4.3-1.2,8.7-1.7,13c-1.9,19.3-3.8,38.5-5.7,57.8c5.1,9.7-1.4,18.8-1.6,28.3c-0.6,0-1.3,0.1-1.9,0.1
		c-0.7-6.4-1.2-12.8-2.1-19.2c-0.2-1.4-2.1-2.6-2.3-3.9c-0.3-4-2.2-8.9,0.2-11.7c5.3-6.2-0.3-11.3-0.7-16.8c-0.5-6-2.3-12-2.7-18
		c-0.6-7.9-0.8-15.9-0.5-23.8c0.1-1.7,3-3.4,4.5-4.9c0.2,0.3,0.9,1.1,2.2,2.5C2528.3,514.5,2535.6,498.7,2544.6,483.5z"/>
	<path id="XMLID_843_" class="st0" d="M2508.1,482.3c0.5-0.7,1.4-1.3,1.5-2c2-7.6,3.9-15.2,5.9-22.7c1.1-4.1,2.5-8.1,3.8-12.2
		c7.2,1.2,12.3,6.2,11.1,11.2c-2.6,11.3-5.4,22.6-8.3,34.7c-4.5-0.2-9.9-0.7-15.3-0.8c-5.2-0.1-10.5,0.2-15.7,0
		c-5.8-0.3-11.7-0.9-17.5-1.5c-6.9-0.8-13.7-1.6-20.5-2.7c-3.3-0.5-6.4-1.7-9.5-2.6c0.2-0.5,0.4-0.9,0.5-1.4
		c7.6,0.7,15.2,1.6,22.8,2.1c4.8,0.3,9.5,2.2,14.5-0.7c1.4-0.8,7.4-1.4,9.7,2.3c0.7,1,4.2,1.1,6.8,0.7c-0.7-0.4-1.3-0.8-2-1.2
		c0.1-0.3,0.2-0.6,0.4-0.8c7.6,1.5,15.2,3,22.9,4.5c0.4-0.7,0.8-1.3,1.2-2c-4.2-1.7-8.3-3.5-12.5-5.2
		C2508,482.2,2508.1,482.3,2508.1,482.3z"/>
	<path id="XMLID_842_" class="st0" d="M2510.7,800.1c-4.6-18.9-3.9-37.9-2.7-56.8c0.4-5.9-0.8-12.2,1.3-17.7
		c2.9-7.6,0-14.4-1.2-22.3c-1,1.6-1.5,2.4-2,3.3c-0.6,0-1.3-0.1-1.9-0.1c-1.2-16.6-1-33.2,2.9-49.8c0.5,3.2,1,6.5,1.6,9.7
		c2.3,10.7,5.8,21.4,6.6,32.1c0.7,9.4-1.9,18.9-2.9,28.3c-0.9,8.4-4.5,17.3-2,25.1c4.9,15-0.4,29.6,0.9,44.3
		C2511.5,797.5,2510.9,798.8,2510.7,800.1z"/>
	<path id="XMLID_841_" class="st0" d="M2469.3,798.4c9.5,3.9,11,6.7,10.2,13.6c-0.5,4.3,1,8.7,0.7,13c-0.4,6.2-1.4,12.4-2.5,18.6
		c-0.3,1.6-2.3,4.4-2.7,4.3c-3.8-0.7-8.6-1.3-10.8-3.2c-2-1.8-1.8-5.4-1.4-8C2464.7,824.1,2467.1,811.5,2469.3,798.4z"/>
	<path id="XMLID_838_" class="st0" d="M2547.9,429.1c0-8.9,0-17.8,0-26.7c0.4-0.1,0.9-0.2,1.3-0.3c0.8,1.4,1.5,2.8,2.3,4.1
		c0.7-0.4,1.4-0.8,2-1.3c0-8.9,0-17.8,0-26.9c0.5,4.1,1,8,1.5,11.9c0.5,0,1,0,1.6,0c0.9-3,1.7-5.9,2.6-8.9c0.6,0.1,1.2,0.1,1.8,0.2
		c-1.8,10.9-3.6,21.8-5.5,32.7c-2.4,13.4-4.7,26.8-7.9,40.1c-1.2,5.1-4.5,9.9-7,14.8c-3.1,5.9-6.3,11.8-9.5,17.7
		c-0.7,1.3-1.4,2.5-2.1,3.7c-0.5-0.1-1-0.2-1.5-0.3c1.2-3.4,2.3-6.8,3.8-10.2c1.5-3.6,3.4-7,5.2-10.5c1.9-3.5,3.9-6.9,5.8-10.3
		c1.9-3.4,3.6-6.8,4.4-10.6c-3,3.9-6,7.9-9,11.8c-0.4-0.1-0.8-0.3-1.2-0.4c3.9-8.4,7.9-16.7,11.8-25.1c-0.4-0.1-0.8-0.3-1.1-0.4
		c-1.5,1.5-3,3-4.5,4.5c-0.7-0.1-1.4-0.2-2.1-0.2c1.1-9.4,2.2-18.9,3.2-28.3c0.7,0,1.3,0,2,0.1c0,6.3,0,12.6,0,18.8
		C2546.5,429.1,2547.2,429.1,2547.9,429.1z M2551.6,407.2c-0.5,0-1.1,0-1.6,0c0,4.9,0,9.7,0,14.6c0.8,0,1.7,0,2.5,0
		C2552.3,416.9,2551.9,412.1,2551.6,407.2z"/>
	<path id="XMLID_837_" class="st0" d="M2250.1,825.6c-9.5,2.7-17.5,3.9-25.9,1c-2.2-0.8-4.9-0.8-7.5-1.1c-7.8-0.7-15.6-0.7-23.1-3.4
		c-4.8-1.7-11.2-1-16.9-1.2c-12.6-0.6-25.2-2-37.8-1.6c-15.1,0.5-30,2.5-45,3.7c-2.9,0.2-5.9,0.1-8.8-0.2c-1.2-0.1-2.2-1-3.3-1.5
		c1.1-0.8,2-2.1,3.2-2.3c6-0.7,12.1-1.2,18.3-1.5c8.2-0.4,16.8,0.5,24.7-0.9c18.7-3.2,36.5,0.8,54.6,2.4c21.3,1.9,42.6,3.8,63.9,5.7
		C2247.3,824.8,2248,825.1,2250.1,825.6z"/>
	<path id="XMLID_835_" class="st0" d="M2163.8,766.5c2.3-12,4.6-24,6.9-35.9c-0.7-0.1-1.3-0.2-2-0.3c-3,11.9-5.9,23.8-8.9,35.7
		c-0.9-0.1-1.8-0.2-2.7-0.3c0.9-5.4,1.1-10.9,2.7-16.1c4.7-15.1,10.1-30.1,15.1-45.2c0.5-1.5,0.5-3,0.8-4.7c3,12.3-4.4,61.1-10,66.8
		C2165,766.6,2164.4,766.5,2163.8,766.5z"/>
	<path id="XMLID_833_" class="st0" d="M2186.2,679.6c-1.6,2.4-3.2,4.7-4.8,7.1c-0.4-0.1-0.8-0.2-1.3-0.3c2-8.3,4-16.6,6-24.9
		c0.6-2.3,1.3-4.6,2.3-6.8c1.7-3.8,4.6-6.1,10.3-3.6c-4.8,18.8-9.6,37.6-14.7,57.6C2179.3,698,2186.1,689,2186.2,679.6z"/>
	<path id="XMLID_832_" class="st0" d="M2591.5,165.1c-0.7,11.6-5.7,20.7-14.8,29.2c-1.2-1.2-2.1-2-3.3-3.1c-0.3,2.6-0.5,4.8-0.8,7
		c-0.4,0-0.7-0.1-1.1-0.1c2.1-22.5,4.1-45,6.2-67.5c0.6,0,1.1,0,1.7,0c0,6.1,0.1,12.2,0,18.2c-0.1,6.4-0.2,12.8-0.9,19.2
		c-0.7,6.1-2.2,12.1-2.5,18.5C2583.7,180.9,2586.5,173.2,2591.5,165.1z"/>
	<path id="XMLID_831_" class="st0" d="M2138.8,643.3c9.8-0.7,19.7-1.3,29.5-2.3c4.6-0.5,9.1-2.6,13.6-2.5
		c10.5,0.2,20.9,1.4,31.3,2.2c2.3,0.2,4.6,0.4,6.9,1.5c-3.8,0-7.6,0-11.4,0c-1.7,0-3.3-0.5-5-0.4c-11.5,1-23,1.8-34.5,3.2
		c-10.3,1.2-20.4,0.4-30.5-0.3C2138.8,644.1,2138.8,643.7,2138.8,643.3z"/>
	<path id="XMLID_830_" class="st0" d="M2587.1,188.7c4.1,7.6-3.3,12.8-7.2,19.6c3-1.2,4.6-1.8,7.1-2.8c-1.3,9.5-2.4,18.4-3.6,27.4
		c-0.3,0-0.7,0-1,0c-2.1-10.4-4.3-20.8-6.1-31.2c-0.2-1.3,1.5-2.8,2.6-4.1C2581.4,194.8,2584.1,191.9,2587.1,188.7z"/>
	<path id="XMLID_829_" class="st0" d="M2454.7,4.4c15.2-2.8,79.9-1.7,94.1,1.5c-31,0-62.7,0-94.3,0
		C2454.5,5.4,2454.6,4.9,2454.7,4.4z"/>
	<path id="XMLID_828_" class="st0" d="M2422.4-97.5c3.9-12.1,7.9-24.3,11.9-36.8c-2.1,1.4-3.9,2.5-6.7,4.3c-0.1-8.7,3.8-15.7,8.4-23
		c4.5,1.4,6.2,3.1,4.9,6.8c-5.4,15.3-10.3,30.7-15.4,46c-0.3,1-1,2-1.5,3C2423.5-97.4,2423-97.5,2422.4-97.5z"/>
	<path id="XMLID_827_" class="st0" d="M2313.3,466.2c-33.4,1.1-66.6,2.1-99.7,3.2c0-0.6,0-1.3-0.1-1.9
		C2246.6,463.8,2279.8,464.1,2313.3,466.2z"/>
	<path id="XMLID_826_" class="st0" d="M2434.8,154.9c16.3-5,37-4.7,48.4,0.4c-4.8-0.2-9.6-0.4-14.4-0.5c-4.9-0.1-9.7,0-14.6,1.1
		c13.4,1.5,26.8,2.9,40.1,4.4c-0.1,0.7-0.3,1.3-0.4,2C2474.2,159.8,2454.5,157.4,2434.8,154.9z"/>
	<path id="XMLID_825_" class="st0" d="M2224.2,569c1.2-8.2,2.5-16.3,3.6-24.5c0.3-2.7-0.1-5.4-0.1-8c0-0.5-0.3-1-0.1-1.4
		c4-7.9,8-15.8,12.1-23.8c0.5,0.1,1,0.2,1.6,0.4c-5.2,19.1-10.4,38.3-15.6,57.4C2225.2,569,2224.7,569,2224.2,569z"/>
	<path id="XMLID_824_" class="st0" d="M2571.6,203.2c1,8,2,16.6,3.3,25.2c1.9,12.8,4.2,25.6,6.2,38.4c0.3,1.7-0.2,3.6-1.4,5.4
		c-1.2-6.9-2.2-13.8-3.5-20.7c-1.4-7-2.4-14.2-5-21c-3.3-8.8-2.6-17.3-0.4-26C2571,203.8,2571.7,203.1,2571.6,203.2z"/>
	<path id="XMLID_822_" class="st0" d="M2417.5,303.9c0.7-2,1.1-3.3,1.6-4.9c18.3,2.5,37.3,5,56.2,7.5c-10.2,6.1-18.8-3-29.5-1.7
		c1.4,1.3,2.3,2.2,3.5,3.4c-2.8-0.1-5.4,0.1-7.7-0.4c-4.6-1-9.1-2.3-13.5-3.8c-2.5-0.9-4.3-2.6-6.8,0.2
		C2421.1,304.7,2417.8,303.9,2417.5,303.9z"/>
	<path id="XMLID_821_" class="st0" d="M2327.1,466.4c23.2,4.7,46.5,9.4,71.1,14.3c-2.8,0.2-4.5,0.6-5.9,0.4
		c-8.7-1.3-17.4-2.8-26.1-4.3c-6.8-1.1-13.7-1.9-20.3-3.4c-6.7-1.5-13-3.7-19.5-5.5C2326.7,467.5,2326.9,466.9,2327.1,466.4z"/>
	<path id="XMLID_820_" class="st0" d="M2562.1,371.9c-7.5-15.8-6.3-32-5.4-48.3C2556.6,339.8,2564.5,355.5,2562.1,371.9z"/>
	<path id="XMLID_819_" class="st0" d="M2592.2,82c2,18.6,3.9,37.1,5.9,55.7c-0.5,0-1.1,0-1.6,0.1
		C2587.1,119.6,2592.2,100.7,2592.2,82z"/>
	<path id="XMLID_818_" class="st0" d="M2582.7,157.2c0.9-17.5-2.5-35.1,2.9-52.6c0,17.6,0,35.2,0,52.8
		C2584.6,157.4,2583.6,157.3,2582.7,157.2z"/>
	<path id="XMLID_817_" class="st0" d="M2371.7-2.3c10.2-0.3,20.4-0.8,30.6-0.9c8.8-0.1,18.4,1.6,26.3-0.3c9.5-2.3,17.3,0.8,25.9,0.9
		c-27.6-0.2-55.1,4.1-82.7,1.6C2371.8-1.5,2371.7-1.9,2371.7-2.3z"/>
	<path id="XMLID_816_" class="st0" d="M2603.6,109.9c3-17.6-4.3-36,8.8-52.7C2609.5,74.8,2606.6,92.4,2603.6,109.9z"/>
	<path id="XMLID_815_" class="st0" d="M2525.7,514.2c-1.8-7.9,10.5-35.4,21.6-46.5c-0.3,1.5-0.2,3.2-0.9,4.6
		c-5.6,11.2-11.3,22.3-16.9,33.4C2528.1,508.2,2527.1,510.8,2525.7,514.2z"/>
	<path id="XMLID_814_" class="st0" d="M2430.9,665.4c11.6,0.5,21.8,3.7,32.5,1.1c-3.2-0.5-6.3-0.9-9.5-1.4c12.6-1.2,24.1,0.8,36,5.8
		C2481.1,673,2439.2,668.9,2430.9,665.4z"/>
	<path id="XMLID_813_" class="st0" d="M2562.2,298.3c0.6,9.8,0.7,19.6,1.9,29.4c1.1,9.5,3.2,18.9,3.4,28.5
		C2561.6,337,2558.4,317.7,2562.2,298.3z"/>
	<path id="XMLID_812_" class="st0" d="M2543.8,381.6c-3.5,18.9-6.9,36.8-10.3,54.8c-0.9,0-1.7,0.1-2.6,0.1c-0.5-1-1.6-2-1.4-2.9
		c3.9-16,7.8-32,11.9-48C2541.7,384.5,2542.7,383.5,2543.8,381.6z"/>
	<path id="XMLID_811_" class="st0" d="M2334.4,134.2c-18.3,1-36.9,3.6-54.4-2.5c0.1-0.4,0.1-0.8,0.2-1.2c4.1,0.5,8.2,1,12.3,1.6
		s8.1,1.3,12.5,1.3c-1.6-0.8-3.2-1.5-6.1-2.9C2312.2,129.4,2323.2,132.7,2334.4,134.2z"/>
	<path id="XMLID_810_" class="st0" d="M2272.2,650.9c19-3.5,35.7,1.9,52.6,7.1c-0.2,0.5-0.3,0.9-0.5,1.4c-8.4-1.8-16.7-3.7-25.1-5.3
		c-2.8-0.5-6.4-4.3-8.5,0.7c-0.1,0.2-1.6,0.3-2.4,0.1c-5.5-0.9-10.9-1.9-16.3-2.8C2272,651.7,2272.1,651.3,2272.2,650.9z"/>
	<path id="XMLID_809_" class="st0" d="M2259.8,645.2c-17.8,1.3-35.4,5.5-54.2,1.9C2223.9,643.4,2241.7,642.5,2259.8,645.2z"/>
	<path id="XMLID_808_" class="st0" d="M2333.3,653.8c8.2,2.5,16.5,4.9,24.7,7.4c-0.2,0.5-0.5,1-0.7,1.4c-3.9-0.4-7.9-0.8-11.8-1.2
		c-1-0.1-2.5-0.3-2.7-0.8c-3.7-6.2-12.4-5.3-19-7.3c-3.4-1.1-7-1.7-12-2.8c12-1.5,30.3,0.5,34.4,3.2c-4.1-0.4-8.3-0.8-12.5-1.2
		C2333.5,652.8,2333.4,653.3,2333.3,653.8z"/>
	<path id="XMLID_807_" class="st0" d="M2402-7.2c-18.9,1.3-37.7,1.3-55.6-4.4c0.1-0.4,0.1-0.9,0.2-1.3
		C2365.1-11,2383.6-9.1,2402-7.2z"/>
	<path id="XMLID_806_" class="st0" d="M2413.9-61c-3.5-6.6,0.4-24.8,6.9-32.9c0.7,2,1.7,3.3,1.5,4.3
		C2419.7-80.4,2416.9-71.2,2413.9-61z"/>
	<path id="XMLID_804_" class="st0" d="M2567.3,298.4c1.9,15,3.9,29.9,5.8,44.9c-0.8,0.1-1.6,0.1-2.4,0.2
		C2566.2,328.6,2566.3,313.6,2567.3,298.4z"/>
	<path id="XMLID_803_" class="st0" d="M2567.8,245.3c-0.6,9.7-1.2,19.4-1.8,29c-0.7,0-1.4,0-2.1,0c-4.6-9.8-2-19.5,1.7-29.2
		C2566.4,245.2,2567.1,245.3,2567.8,245.3z"/>
	<path id="XMLID_802_" class="st0" d="M2570.3,235.9c3.2,19.1,6.3,38.2,9.5,57.3c-0.6,0.1-1.2,0.1-1.9,0.2
		c-3.2-19.1-6.5-38.2-9.7-57.4C2569,236,2569.7,236,2570.3,235.9z"/>
	<path id="XMLID_801_" class="st0" d="M2300.5,839.3c15.5-2.1,30,0.8,44.2,5.5c-14.8-1.4-29.7-2.7-44.5-4.1
		C2300.3,840.2,2300.4,839.7,2300.5,839.3z"/>
	<path id="XMLID_800_" class="st0" d="M2573.1,317c-1.1-13.8-2.1-27.6-3.2-41.4C2572.8,289.4,2578.8,303,2573.1,317z"/>
	<path id="XMLID_799_" class="st0" d="M2598.9,126.5c-1.1-18.9-2.2-37.8-3.4-56.7c0.4,0,0.8,0,1.2,0c1.6,18.9,3.1,37.8,4.7,56.7
		C2600.6,126.5,2599.7,126.5,2598.9,126.5z"/>
	<path id="XMLID_798_" class="st0" d="M2139.1,824.2c16.9,0,33.7,0,50.6,0c0,0.3,0,0.6,0,0.9c-16.8,0.6-33.6,1.2-50.3,1.8
		C2139.3,826,2139.2,825.1,2139.1,824.2z"/>
	<path id="XMLID_797_" class="st0" d="M2355.7,652.3c6.1,1.4,13.8-0.6,17.9,5.1c0.3,0.5,1.9,0.4,2.9,0.7c7.2,1.9,14.3,3.8,21.5,5.7
		c-0.3,0.5-0.5,1.1-0.8,1.6c-14.1-3.8-28.2-7.6-42.3-11.4C2355.1,653.4,2355.4,652.9,2355.7,652.3z"/>
	<path id="XMLID_796_" class="st0" d="M2592.1,139.6c4.1,4.2,4.7,7.3,2.2,11.4c-3.8,6.3-6.5,13-10.3,19.4
		C2586.7,160.4,2589.3,150.4,2592.1,139.6z"/>
	<path id="XMLID_795_" class="st0" d="M2260.2,287.9c10.8-2,21.4-5.7,32.9-0.5c-10.9,0.8-21.7,1.6-32.6,2.3
		C2260.5,289.1,2260.4,288.5,2260.2,287.9z"/>
	<path id="XMLID_794_" class="st0" d="M2296.4,291.3c10.4-0.8,20.8-1.7,31.2-2.5c0.1,0.5,0.1,0.9,0.2,1.4c-8,4.2-16.2,4.9-31.6,2.6
		C2296.3,292.3,2296.4,291.8,2296.4,291.3z"/>
	<path id="XMLID_793_" class="st0" d="M2076.8,810.9c11.9,0.7,23.9,1.3,35.8,2c0,0.4,0,0.8,0,1.2c-10.2,0.5-20.4,1.1-30.6,1.3
		c-1.9,0-3.9-1.7-5.8-2.7C2076.3,812.2,2076.5,811.6,2076.8,810.9z"/>
	<path id="XMLID_792_" class="st0" d="M2600.3,39.2c0,6.2,0,12.4,0,19c-1.7-0.5-2.6-0.7-3.8-1c-1.6,3.9-3.3,7.9-4.9,11.8
		c-0.4,0-0.7-0.1-1.1-0.1c2.6-10,5.3-19.9,7.9-29.9C2599.1,39.1,2599.7,39.2,2600.3,39.2z"/>
	<path id="XMLID_791_" class="st0" d="M2299.8,829.4c-13.8,1-27.7,1.6-41.4,3.1c-6.9,0.7-13.4,4-21.7,0.3
		C2258.6,833.1,2278.5,826.1,2299.8,829.4z"/>
	<path id="XMLID_790_" class="st0" d="M2524,496.2c-0.7,3.8-1.6,7.6-1.9,11.4c-0.2,2.3,0.1,4.9,1.3,7c1.6,2.9,2.5,4.9-2.7,6
		c-1.2,0.3-1.9,1.7-3.8,3.6c1.7-10.1,3.2-19.2,4.7-28.3C2522.4,496.1,2523.2,496.1,2524,496.2z"/>
	<path id="XMLID_789_" class="st0" d="M2411.4,151c11.7-0.9,23.3-1.9,35-2.8c0.1,0.4,0.1,0.9,0.2,1.3c-11.6,1.3-22.7,5.4-35,3.2
		C2411.5,152.1,2411.5,151.6,2411.4,151z"/>
	<path id="XMLID_788_" class="st0" d="M2495.8,804.5c0-9.8-0.1-19.5,0.1-29.3c0-2.8,0.9-5.5,2.4-8.3c0,6.3,0,12.6,0,18.8
		c0,6.2,0,12.4,0,18.6C2497.5,804.4,2496.6,804.5,2495.8,804.5z"/>
	<path id="XMLID_787_" class="st0" d="M2130.9,635.2c11.6,0.8,22.8,1.6,34.3,2.3C2144.5,640.5,2132.5,639.9,2130.9,635.2z"/>
	<path id="XMLID_786_" class="st0" d="M2549.5,351.8c-1.3,7.6-2.5,15.1-4,22.7c-0.1,0.7-2,1.2-4.4,2.6c2.2-9.2,4.1-17.3,6-25.4
		C2547.9,351.7,2548.7,351.8,2549.5,351.8z"/>
	<path id="XMLID_785_" class="st0" d="M2101,961c2.2-11.2,4.5-22.4,6.7-33.6c0.5,0.1,1.1,0.1,1.6,0.2c-2,11.2-3.9,22.4-5.9,33.7
		C2102.6,961.2,2101.8,961.1,2101,961z"/>
	<path id="XMLID_784_" class="st0" d="M2425,0.6c12.4,0,24.8,0,37.1,0c-12.3,2.1-24.6,3.2-37.1,1.2C2425,1.4,2425,1,2425,0.6z"/>
	<path id="XMLID_783_" class="st0" d="M2404.9,475.3c10.4,0.9,20.7,1.8,31.2,2.7c-6.5,2.4-6.5,2.4-14.8,0.9
		c-5.5-1-11.1-1.9-16.6-2.8C2404.8,475.9,2404.9,475.6,2404.9,475.3z"/>
	<path id="XMLID_782_" class="st0" d="M2481,307.2c12.8,1.4,25.7,2.8,38.5,4.2c-0.1,0.4-0.1,0.8-0.2,1.2
		c-12.9-1.2-25.7-2.5-38.6-3.7C2480.8,308.4,2480.9,307.8,2481,307.2z"/>
	<path id="XMLID_781_" class="st0" d="M2350.3,295.9c10,0,20,0,27.5,0C2370.4,296.9,2360.6,300.3,2350.3,295.9z"/>
	<path id="XMLID_780_" class="st0" d="M2543.8,493c2.5,9.8-6.6,17-10.2,25.5C2537,510,2540.4,501.5,2543.8,493z"/>
	<path id="XMLID_779_" class="st0" d="M2555.3,9.8c-13.1,0.6-25.4,1.2-37.8,1.8c0-0.6-0.1-1.2-0.1-1.8
		C2529.7,9.8,2542.1,9.8,2555.3,9.8z"/>
	<path id="XMLID_778_" class="st0" d="M2596.9,14c-12-1.8-24-3.6-36-5.4c12.6,0.1,24.8,1.8,36.8,3.8
		C2597.4,13,2597.1,13.5,2596.9,14z"/>
	<path id="XMLID_777_" class="st0" d="M2326.5,293.8c7.9-0.8,15.9-1.6,23.8-2.4c0.1,0.6,0.3,1.2,0.4,1.8c-7.8,1-15.6,2.1-23.4,3.1
		C2327,295.5,2326.7,294.7,2326.5,293.8z"/>
	<path id="XMLID_776_" class="st0" d="M2391.4,297.8c-0.8,2-1.4,3.3-2,4.9c-5-0.6-9.9-1.2-14.8-1.8c0-0.5-0.1-1-0.1-1.5
		C2379.8,298.8,2385.2,298.3,2391.4,297.8z"/>
	<path id="XMLID_775_" class="st0" d="M2209,459.4c-8.6,4.3-10.6,4.2-18.4-1.8C2197.6,458.3,2203.1,458.8,2209,459.4z"/>
	<path id="XMLID_774_" class="st0" d="M2268.1,284.2c-4.4,0.5-8.9,1.2-13.3,1.4c-1.2,0-2.4-1.6-3.7-2.4c0.4-0.4,0.8-0.9,1.2-1.3
		c5.3,0.3,10.6,0.6,15.9,1C2268.1,283.3,2268.1,283.7,2268.1,284.2z"/>
	<path id="XMLID_773_" class="st0" d="M2338.4,143.6c10.2-1.4,20.5-2.8,30.7-4.1c0.1,0.2,0.1,0.4,0.2,0.6c-3.1,0.7-6.2,1.6-9.4,2
		c-3.7,0.6-7.5,0.8-11.2,1.1c-3.4,0.3-6.8,0.7-10.2,1C2338.5,144.1,2338.5,143.9,2338.4,143.6z"/>
	<path id="XMLID_772_" class="st0" d="M2549.7,13.1c9.2,0,18.5,0,27.7,0c0,0.3,0,0.6,0,0.9c-9.2,0-18.5,0-27.7,0
		C2549.7,13.7,2549.7,13.4,2549.7,13.1z"/>
	<path id="XMLID_771_" class="st0" d="M2403.3,661.7c-5.9-1.8-11.2-3.4-17-5.2C2398.2,656.2,2403.1,657.6,2403.3,661.7z"/>
	<path id="XMLID_770_" class="st0" d="M2439.2,663.5c-5.3-0.8-10.6-1.5-15.8-2.3c0.1-0.5,0.2-1,0.3-1.6c5.3,0.6,10.6,1.2,16,1.8
		C2439.5,662.1,2439.4,662.8,2439.2,663.5z"/>
	<path id="XMLID_769_" class="st0" d="M2405.8-66.6c1.9-6.7,3.8-13.3,5.8-20c0.4,0.1,0.8,0.1,1.2,0.2c-1.7,6.7-3.4,13.4-5.2,20.1
		C2407-66.4,2406.4-66.5,2405.8-66.6z"/>
	<path id="XMLID_767_" class="st0" d="M2476.4,946c2.2-5.9,4.4-11.7,6.6-17.6c0.5,0.1,0.9,0.2,1.4,0.3c-2.1,5.9-4.2,11.8-6.2,17.7
		C2477.5,946.2,2477,946.1,2476.4,946z"/>
	<path id="XMLID_766_" class="st0" d="M2396.2,846.5c9.7,0.9,19.4,1.7,29,2.6c-0.2,0.6-0.3,1.3-0.5,1.9
		C2415.2,849.5,2405.7,848,2396.2,846.5C2396.3,846.4,2396.2,846.5,2396.2,846.5z"/>
	<path id="XMLID_765_" class="st0" d="M2267,649.2c-5.9,0.5-11.7,1.1-17.6,1.6c-0.1-0.6-0.2-1.2-0.3-1.7c5.9-0.6,11.7-1.1,17.6-1.7
		C2266.8,648,2266.9,648.6,2267,649.2z"/>
	<path id="XMLID_764_" class="st0" d="M2537.8,448.1c-4.1-3.4-7.6-6.4,1.1-9.2C2538.5,442,2538.2,444.9,2537.8,448.1z"/>
	<path id="XMLID_763_" class="st0" d="M2129.3,822.7c-3.5,3.1-7.7,3.4-16.2,1.5C2118.6,823.7,2123.3,823.3,2129.3,822.7z"/>
	<path id="XMLID_762_" class="st0" d="M2537.4,524.8c1.5-4.5,3-8.9,4.4-13.4c0.8,0.1,1.6,0.3,2.3,0.4c-1.9,4.3-3.7,8.7-5.6,13
		C2538.2,524.9,2537.8,524.9,2537.4,524.8z"/>
	<path id="XMLID_761_" d="M2318.5,823.3c-29.9-5.3-59.8-10.6-89.7-16C2259.2,810.6,2289.6,814.4,2318.5,823.3z"/>
	<path id="XMLID_760_" d="M2443.1,729.6c-8.2,19.8-15.8,38.3-23.8,57.5C2417.3,781.8,2436.3,735.6,2443.1,729.6z"/>
	<path id="XMLID_759_" d="M2157.3,791.5c22.9,0,45.8,0,68.8,0c0,0.3,0,0.6,0,0.9c-22.9,0-45.8,0-68.7,0
		C2157.3,792.1,2157.3,791.8,2157.3,791.5z"/>
	<path id="XMLID_758_" d="M2420.6,807.8c-20.2-1.1-40.5-2.2-61.1-3.3C2366,801.5,2409.9,803.6,2420.6,807.8z"/>
	<path id="XMLID_757_" d="M2474.4,714.7c-1.4-12.4,6.3-23.5,12.1-34.8c-3.5,11.6-7,23.2-10.4,34.8
		C2475.6,714.7,2475,714.7,2474.4,714.7z"/>
	<path id="XMLID_756_" d="M2460.5,734.6c-3.7,12-7.5,24.4-11.1,36C2445.9,764.7,2452.7,741.6,2460.5,734.6z"/>
	<path id="XMLID_755_" d="M2138,793.1c-14.9,1.3-29.7,2.6-44.6,3.9c-0.1-0.6-0.2-1.2-0.3-1.9c14.8-1.1,29.7-2.1,44.5-3.2
		C2137.8,792.3,2137.9,792.7,2138,793.1z"/>
	<path id="XMLID_754_" d="M2453.1,727.6c4.2,5.8,0.6,14.6-6.4,18.4C2448.6,740.5,2450.8,734.2,2453.1,727.6z"/>
	<path id="XMLID_753_" d="M2467,763.8c-2.7,6.4-5.4,12.8-8.1,19.3c-2-7.4,3.9-13.1,6.4-19.6C2465.9,763.6,2466.4,763.7,2467,763.8z"
		/>
	<path id="XMLID_752_" d="M2451.4,703.6c-0.6-2.9-1.3-5.8-1.9-8.7c1-0.1,1.9-0.2,2.9-0.4c0.6,2.9,1.3,5.8,1.9,8.7
		C2453.2,703.3,2452.3,703.5,2451.4,703.6z"/>
	<path id="XMLID_751_" d="M2439.8,452.8c-22.4-2.2-45-5-67.8-6.4c-22.9-1.4-45.9-1.3-68.1-1.9
		C2313.9,438.5,2419.3,444.7,2439.8,452.8z"/>
	<path id="XMLID_750_" d="M2351.7,455.5c-26.6-1.1-54-2.2-81.5-3.3c-0.7,0-1.3-0.6-2.1-1C2275.2,448.2,2344.1,452.1,2351.7,455.5z"
		/>
	<path id="XMLID_749_" d="M2455.7,467.4c-17.7-1.9-35.3-3.8-53-5.6c0.1-0.6,0.2-1.2,0.3-1.8c18.4-2.2,35.1,4.6,52.9,5.8
		C2455.9,466.3,2455.8,466.8,2455.7,467.4z"/>
	<path id="XMLID_748_" d="M2281.8,373.9c-3.6,14.2-7,27.8-10.7,42.5C2267.4,412.1,2276.5,379.8,2281.8,373.9z"/>
	<path id="XMLID_747_" d="M2225.8,412.2c3.4-13.6,6.9-27.2,10.3-40.9c0.7,0.1,1.4,0.2,2.1,0.3c-3.2,13.7-6.4,27.3-9.6,41
		C2227.6,412.4,2226.7,412.3,2225.8,412.2z"/>
	<path id="XMLID_746_" d="M2264,257.8c-7.7,0-13.6,0-19.5,0C2247.3,254.3,2250.2,254.2,2264,257.8z"/>
	<path id="XMLID_745_" d="M2404.4,269c7.3,1.4,14.5,2.8,21.8,4.2c-0.2,0.5-0.3,0.9-0.5,1.4c-7.3-1.3-14.5-2.7-21.8-4
		C2404.1,270,2404.2,269.5,2404.4,269z"/>
	<path id="XMLID_744_" d="M2302.1,268.9c-5.7-0.2-11.4-0.4-17.1-0.7c0-0.3,0-0.6,0.1-0.8c5.7,0,11.3,0,17,0
		C2302.1,267.8,2302.1,268.4,2302.1,268.9z"/>
	<path id="XMLID_743_" d="M2378.4,119.3c18.8-7.2,114.1-8.3,123.9-1.7C2460.6,113.9,2419.4,114.9,2378.4,119.3z"/>
	<path id="XMLID_742_" d="M2309.4,109.9c21.7-0.9,43.4-1.7,65.1-2.6c0,0.6,0.1,1.2,0.1,1.8c-21.8-0.1-43.2,4.5-65.2,2.5
		C2309.4,111,2309.4,110.4,2309.4,109.9z"/>
	<path id="XMLID_741_" d="M2446.7,134.5c20.7-2.6,41.1-1.1,61.5,1.7C2487.7,135.6,2467.2,135,2446.7,134.5z"/>
	<path id="XMLID_740_" d="M2332.7,67.1c1.1-9.2,2.3-18.5,3.4-27.7c0.6,0,1.2,0.1,1.8,0.1c-0.6,9.3-1.2,18.5-1.9,27.8
		C2334.9,67.2,2333.8,67.2,2332.7,67.1z"/>
	<path id="XMLID_739_" d="M2347.9,25.2c0,4.5,0,9,0,13.5c-0.7,0-1.5,0-2.2-0.1c0.4-4.5,0.7-9,1.1-13.4
		C2347.1,25.2,2347.5,25.2,2347.9,25.2z"/>
	<path id="XMLID_738_" d="M2260.8,627.3c-25.5-2.1-51-4.1-76.5-6.2c0.1-0.6,0.1-1.1,0.2-1.7c8.3-1.9,16.2,1.5,24.4,2.2
		c8.6,0.6,17.2,1.2,25.8,2c8.8,0.7,17.5,1.6,26.3,2.4C2261,626.4,2260.9,626.9,2260.8,627.3z"/>
	<path id="XMLID_737_" d="M2472.8,652.4c-22.3-0.7-44.6-1.4-66.8-2.2c0-0.3,0-0.7,0-1c22.3,0.5,44.6,1,66.9,1.5
		C2472.9,651.3,2472.8,651.8,2472.8,652.4z"/>
	<path id="XMLID_736_" d="M2157.7,599c-8.3-1.1-16.7,2.9-26.3-1.3c9.7,0,18,0,26.3,0C2157.7,598.1,2157.7,598.5,2157.7,599z"/>
	<path id="XMLID_735_" d="M2386,647.9c4.7,0.3,9.3,0.7,14,1c0,0.2,0,0.5,0,0.7c-4.7,0-9.4,0-14,0C2385.9,649,2386,648.5,2386,647.9z
		"/>
	<path id="XMLID_734_" d="M2387.7-32.7c-13,0-25.9,0-38.9,0c0-0.4-0.1-0.9-0.1-1.3c6.3,0,12.6,0,18.9,0c6.6,0,13.3,0,19.9,0
		C2387.7-33.6,2387.7-33.2,2387.7-32.7z"/>
	<path id="XMLID_733_" d="M2353.8-22.7c8.2-1.1,16.4-2.1,24.6-3.2c0.1,0.3,0.2,0.7,0.3,1c-8.2,1.4-16.4,2.9-24.5,4.3
		C2354.1-21.3,2354-22,2353.8-22.7z"/>
	<path id="XMLID_732_" d="M2391.1-131.2c1.8-4.2,0.8-9.2,7.9-11.9c-2.1,4.1-4.1,8.2-6.2,12.3
		C2392.2-130.9,2391.7-131.1,2391.1-131.2z"/>
	<path id="XMLID_731_" d="M2375.2-72.2c1.9-9.6,4.2-12.7,9.6-13C2381.7-81.1,2378.7-77,2375.2-72.2z"/>
	<path id="XMLID_730_" d="M2500,850.6c-0.7,6.3-0.2,12.8-2.4,18.8c-3.7,10.3-9,20.2-13.8,30.3c-0.6,1.2-2.1,2.1-3.2,3.2
		c-0.6-0.3-1.2-0.5-1.8-0.8c2.1-3.6,4.8-7.1,6.2-10.8c4.6-11.7,8.7-23.5,13-35.3C2498.7,854.1,2499.4,852.3,2500,850.6
		C2500.1,850.5,2500,850.6,2500,850.6z"/>
	<path id="XMLID_729_" d="M2429.2,887c-0.7-5.9-1.4-11.9-2.2-17.8c0.9-0.1,1.7-0.1,2.6-0.2c2.5,5.8,0.5,12,1.2,18
		C2430.3,887,2429.7,887,2429.2,887z"/>
	<path id="XMLID_728_" d="M2428.1,932.6c0,4.2,0,8.4,0,12.6c-0.4,0-0.9,0-1.3,0c0-4.1,0-8.3,0-12.4
		C2427.2,932.7,2427.7,932.7,2428.1,932.6z"/>
	<path id="XMLID_727_" d="M2207.2,560.7c12.4-28.9,18.9-58.8,30.8-87.8c1.1,0.1,2.3,0.1,3.4,0.2c0.2,1.8,1.5,4,0.5,5.2
		c-7.2,8.7-8.5,18.7-11.9,28.2c-5.9,16.8-11.7,33.6-17.5,50.5c-0.5,1.5-1.6,3-2.4,4.5C2209.1,561.2,2208.1,561,2207.2,560.7z"/>
	<path id="XMLID_726_" d="M2221.5,547.5c-2.4,14.2-4.6,27.1-6.8,40.1c-0.7,0.1-1.3,0.1-2,0.2c-0.6-1.1-1.8-2.4-1.6-3.4
		c2.4-11.6,5.1-23.2,7.7-34.8C2218.8,549.2,2219.5,548.9,2221.5,547.5z"/>
	<path id="XMLID_725_" d="M2185.4,515c-0.3,11.2-5.8,22.1,0,33.5c-0.7,0.2-1.3,0.4-2,0.6c-1.1-1.3-3-2.6-3.2-4
		c-1.2-7.6-1.2-15.2,2.8-22.5C2184.4,520.2,2184.7,517.5,2185.4,515z"/>
	<path id="XMLID_724_" d="M2168.4,581.4c0-11,0-22.1,0-33.1c0.7,0,1.5,0,2.2,0.1c-0.6,11-1.3,22.1-1.9,33.1
		C2168.6,581.5,2168.5,581.5,2168.4,581.4z"/>
	<path id="XMLID_723_" d="M2111.6,757.3c3.3-6.9,6.6-13.6,9.8-20.3C2123,745.6,2116.2,758,2111.6,757.3z"/>
	<path id="XMLID_722_" d="M2459.1,580.9c2.3-8.5,4.5-17.1,6.8-25.6c0.8,0.1,1.5,0.2,2.3,0.3c-2.6,8.5-1.8,17.5-6.4,25.7
		C2460.9,581.2,2460,581.1,2459.1,580.9z"/>
	<path id="XMLID_721_" d="M2330.1,194.3c-4.6,15.8-9.2,31.6-13.8,47.4C2312.1,236.6,2322.4,201.6,2330.1,194.3z"/>
	<path id="XMLID_720_" d="M2291.5,191.6c-0.4,6.1-0.7,12.2-1.1,18.3c-0.9,0-1.9-0.1-2.8-0.1c0.7-6.1,1.5-12.2,2.2-18.2
		C2290.4,191.6,2291,191.6,2291.5,191.6z"/>
	<path id="XMLID_719_" d="M2500.8,374c-1.7,19-3.4,37.9-5.1,56.9c-1,0-1.9,0-2.9,0.1c-0.3-1.5-1.1-3-0.9-4.4
		c2-17.3,4.2-34.6,6.4-51.9c0-0.3,0.4-0.5,0.6-0.8C2499.6,374,2500.2,374,2500.8,374z"/>
	<path id="XMLID_718_" d="M2511.9,349.5c-0.9,11.6-1.8,23.1-2.7,34.7C2505.9,372.4,2508.1,360.9,2511.9,349.5z"/>
	<path id="XMLID_717_" d="M2535.9,346.2c-3.7,8.6-7.3,17.2-11,25.8c-1-0.2-2-0.5-3-0.7c3.9-8.5,7.8-17.1,11.7-25.6
		C2534.4,345.8,2535.2,346,2535.9,346.2z"/>
	<path id="XMLID_716_" d="M2609.7-108.3c0.1-1.1,0.2-2.2,0.4-3.7c-1.3,0.5-2.3,0.9-3.2,1.3c-0.4-0.2-0.8-0.3-1.2-0.5
		c2.2-3,4.4-6,6.6-9.1c0.7,0.2,1.5,0.4,2.2,0.5c-1.2,3.9-2.3,7.8-3.5,11.6C2610.6-108.2,2610.1-108.2,2609.7-108.3z"/>
	<path id="XMLID_714_" d="M2587.9,33.6c-1.9,4.6-3.8,9.2-5.7,13.8c-0.8-0.2-1.5-0.3-2.3-0.5c1.7-4.6,3.4-9.3,5.1-13.9
		C2586,33.2,2587,33.4,2587.9,33.6z"/>
	<path id="XMLID_713_" d="M2560.1,59.9c1.3-4.5,2.6-8.9,3.9-13.4c1,0.2,1.9,0.3,2.9,0.5c-1.5,4.5-3,9.1-4.6,13.6
		C2561.6,60.4,2560.8,60.2,2560.1,59.9z"/>
	<path id="XMLID_712_" d="M2551.6,407.2c0.3,4.9,0.6,9.7,0.9,14.6c-0.8,0-1.7,0-2.5,0c0-4.9,0-9.7,0-14.6
		C2550.6,407.2,2551.1,407.2,2551.6,407.2z"/>
</g>
</svg>
