<?xml version="1.0" encoding="utf-8"?>
<!-- Generator: Adobe Illustrator 19.0.0, SVG Export Plug-In . SVG Version: 6.00 Build 0)  -->
<svg version="1.1" id="Layer_1" xmlns="http://www.w3.org/2000/svg" xmlns:xlink="http://www.w3.org/1999/xlink" x="0px" y="0px"
	 viewBox="0 0 148 59" style="enable-background:new 0 0 148 59;" xml:space="preserve">
<style type="text/css">
	.st0{stroke:#000000;}
	.st1{stroke:#000000;stroke-miterlimit:10;}
</style>
<g id="XMLID_1_">
	<g id="XMLID_3_">
		<path id="XMLID_4_" class="st0" d="M28.6,40.2l-8.7-14.9h-3.6v14.9h-5.6V6.8h11.6c1.8,0,3.3,0.3,4.7,0.8s2.4,1.2,3.3,2.1
			s1.4,1.9,1.9,3.1s0.6,2.4,0.6,3.8c0,2.3-0.6,4.2-1.9,5.7s-3,2.5-5.3,2.9l9.6,15.1H28.6z M16.3,11.5v9.6h5.2c2,0,3.5-0.4,4.4-1.3
			s1.4-2,1.4-3.5s-0.5-2.7-1.5-3.5s-2.4-1.3-4.4-1.3H16.3z"/>
		<path id="XMLID_7_" class="st0" d="M55.4,16.6h5.7l-9.8,23.6h-4.7l-9.8-23.6h5.7L49,34L55.4,16.6z"/>
		<path id="XMLID_9_" class="st0" d="M68.1,12.1c-0.9,0-1.7-0.3-2.3-1s-1-1.4-1-2.3s0.3-1.7,1-2.3s1.4-1,2.4-1c0.9,0,1.7,0.3,2.3,1
			s1,1.4,1,2.3s-0.3,1.7-1,2.3S69,12.1,68.1,12.1z M65.3,40.2V16.6h5.4v23.6H65.3z"/>
		<path id="XMLID_12_" class="st0" d="M91.5,16.2c2,0,3.9,0.5,5.6,1.5s3,2.4,4,4.3s1.5,4.1,1.5,6.5c0,1.9-0.3,3.6-0.9,5.1
			s-1.4,2.9-2.4,3.9s-2.2,1.8-3.6,2.4s-2.8,0.9-4.3,0.9c-1.7,0-3.2-0.4-4.6-1.1s-2.4-1.7-3.2-3v15.3h-5.4V16.6h5.2l0.1,3.8
			c0.7-1.3,1.8-2.4,3.2-3.2S89.8,16.2,91.5,16.2z M90.4,36.2c2,0,3.6-0.7,4.9-2.1s2-3.3,2-5.6s-0.7-4.2-2-5.6s-3-2.1-4.9-2.1
			c-2,0-3.6,0.7-5,2.2s-2,3.3-2,5.5c0,2.3,0.7,4.1,2,5.6S88.4,36.2,90.4,36.2z"/>
	</g>
	<g id="XMLID_391_">
		<path id="XMLID_425_" class="st1" d="M125,25.2L125,25.2c1.7,0,3.1,1.5,3.1,3.2l-0.5,20.2c0,1.7-1.5,3.1-3.2,3.1l0,0
			c-1.7,0-3.1-1.5-3.1-3.2l0.5-20.2C121.8,26.6,123.2,25.2,125,25.2z"/>
		<path id="XMLID_392_" class="st1" d="M113.5,25.2L113.5,25.2c1.7,0,3.1,1.5,3.1,3.2L116,48.7c0,1.7-1.5,3.1-3.2,3.1l0,0
			c-1.7,0-3.1-1.5-3.1-3.2l0.5-20.2C110.3,26.6,111.7,25.2,113.5,25.2z"/>
		<path id="XMLID_393_" class="st1" d="M135.9,12.4L135.9,12.4c1.7,0,3.1,1.5,3.1,3.2L138.1,49c0,1.7-1.5,3.1-3.2,3.1h0
			c-1.7,0-3.1-1.5-3.1-3.2l0.8-33.4C132.7,13.7,134.1,12.3,135.9,12.4z"/>
	</g>
</g>
</svg>
