<svg xmlns="http://www.w3.org/2000/svg"><symbol id="logoblack" viewBox="0 0 148 59"><style>.st0,.st1{stroke:#000}.st1{stroke-miterlimit:10}</style><g id="XMLID_1_"><g id="XMLID_3_"><path id="XMLID_4_" d="M28.6 40.2l-8.7-14.9h-3.6v14.9h-5.6V6.8h11.6c1.8 0 3.3.3 4.7.8s2.4 1.2 3.3 2.1 1.4 1.9 1.9 3.1.6 2.4.6 3.8c0 2.3-.6 4.2-1.9 5.7s-3 2.5-5.3 2.9l9.6 15.1h-6.6zM16.3 11.5v9.6h5.2c2 0 3.5-.4 4.4-1.3s1.4-2 1.4-3.5-.5-2.7-1.5-3.5-2.4-1.3-4.4-1.3h-5.1z" class="st0"/><path id="XMLID_7_" d="M55.4 16.6h5.7l-9.8 23.6h-4.7l-9.8-23.6h5.7L49 34l6.4-17.4z" class="st0"/><path id="XMLID_9_" d="M68.1 12.1c-.9 0-1.7-.3-2.3-1s-1-1.4-1-2.3.3-1.7 1-2.3 1.4-1 2.4-1c.9 0 1.7.3 2.3 1s1 1.4 1 2.3-.3 1.7-1 2.3-1.5 1-2.4 1zm-2.8 28.1V16.6h5.4v23.6h-5.4z" class="st0"/><path id="XMLID_12_" d="M91.5 16.2c2 0 3.9.5 5.6 1.5s3 2.4 4 4.3 1.5 4.1 1.5 6.5c0 1.9-.3 3.6-.9 5.1s-1.4 2.9-2.4 3.9-2.2 1.8-3.6 2.4-2.8.9-4.3.9c-1.7 0-3.2-.4-4.6-1.1s-2.4-1.7-3.2-3V52h-5.4V16.6h5.2l.1 3.8c.7-1.3 1.8-2.4 3.2-3.2s3.1-1 4.8-1zm-1.1 20c2 0 3.6-.7 4.9-2.1s2-3.3 2-5.6-.7-4.2-2-5.6-3-2.1-4.9-2.1c-2 0-3.6.7-5 2.2s-2 3.3-2 5.5c0 2.3.7 4.1 2 5.6s3 2.1 5 2.1z" class="st0"/></g><g id="XMLID_391_"><path id="XMLID_425_" d="M125 25.2c1.7 0 3.1 1.5 3.1 3.2l-.5 20.2c0 1.7-1.5 3.1-3.2 3.1-1.7 0-3.1-1.5-3.1-3.2l.5-20.2c0-1.7 1.4-3.1 3.2-3.1z" class="st1"/><path id="XMLID_392_" d="M113.5 25.2c1.7 0 3.1 1.5 3.1 3.2l-.6 20.3c0 1.7-1.5 3.1-3.2 3.1-1.7 0-3.1-1.5-3.1-3.2l.5-20.2c.1-1.8 1.5-3.2 3.3-3.2z" class="st1"/><path id="XMLID_393_" d="M135.9 12.4c1.7 0 3.1 1.5 3.1 3.2l-.9 33.4c0 1.7-1.5 3.1-3.2 3.1-1.7 0-3.1-1.5-3.1-3.2l.8-33.4c.1-1.8 1.5-3.2 3.3-3.1z" class="st1"/></g></g></symbol></svg>